<svg id="Livello_1" data-name="Livello 1" xmlns="http://www.w3.org/2000/svg" viewBox="0 0 221.03585 141.15711"><defs><style>.cls-1{fill:#00ff9c;}.cls-1,.cls-2{stroke:#000;stroke-miterlimit:10;stroke-width:2px;}</style></defs><path class="cls-1" d="M498.92343,137.43867V144.789h-11.793v24.51076a3.63705,3.63705,0,1,1-7.2741,0V144.789H314.1157v-5.272a28.73021,28.73021,0,0,1,19.37217-27.1706L391.48992,92.345l47.1243-16.2452a26.26809,26.26809,0,0,1,30.99356,11.16381l3.0984,5.08139L497.827,133.52988A7.56315,7.56315,0,0,1,498.92343,137.43867Z" transform="translate(-296.00429 -73.66238)"/><rect class="cls-1" x="18.11141" y="71.12661" width="184.80773" height="47.82104"/><path class="cls-1" d="M1,118.94766H220.03585a0,0,0,0,1,0,0v0a21.20944,21.20944,0,0,1-21.20944,21.20944H22.20944A21.20944,21.20944,0,0,1,1,118.94768v0a0,0,0,0,1,0,0Z"/><path class="cls-1" d="M31.94906,71.52422H39.2176a0,0,0,0,1,0,0V95.5179a3.63427,3.63427,0,0,1-3.63427,3.63427h0a3.63427,3.63427,0,0,1-3.63427-3.63427V71.52422A0,0,0,0,1,31.94906,71.52422Z"/><path class="cls-1" d="M39.2176,71.52422h7.26854a0,0,0,0,1,0,0V79.309a3.63427,3.63427,0,0,1-3.63427,3.63427h0A3.63427,3.63427,0,0,1,39.2176,79.309V71.52422A0,0,0,0,1,39.2176,71.52422Z"/><path class="cls-1" d="M46.48614,72.36005h7.26854a0,0,0,0,1,0,0V86.52918a3.63427,3.63427,0,0,1-3.63427,3.63427h0a3.63427,3.63427,0,0,1-3.63427-3.63427V72.36005A0,0,0,0,1,46.48614,72.36005Z"/><path class="cls-1" d="M472.59178,145.18945h7.26456V156.01a3.63229,3.63229,0,1,1-7.26456,0Z" transform="translate(-296.00429 -73.66238)"/><path class="cls-1" d="M464.06879,145.18945h7.26456v6.65439a3.63228,3.63228,0,1,1-7.26456,0Z" transform="translate(-296.00429 -73.66238)"/><circle class="cls-1" cx="58.7363" cy="47.76132" r="1.69707"/><circle class="cls-1" cx="100.38396" cy="58.30178" r="1.69707"/><circle class="cls-1" cx="33.64613" cy="59.99885" r="1.69707"/><circle class="cls-1" cx="103.7781" cy="25.10845" r="1.69707"/><circle class="cls-1" cx="176.58749" cy="63.39299" r="1.69707"/><circle class="cls-1" cx="133.31213" cy="63.39299" r="1.69707"/><circle class="cls-1" cx="151.24379" cy="8.3973" r="1.69707"/><circle class="cls-1" cx="181.91684" cy="38.11437" r="1.69707"/><path class="cls-1" d="M184.8467,71.12661H192.656a0,0,0,0,1,0,0V92.55782a3.90464,3.90464,0,0,1-3.90464,3.90464h0a3.90464,3.90464,0,0,1-3.90464-3.90464V71.12661A0,0,0,0,1,184.8467,71.12661Z"/><line class="cls-1" x1="3.84309" y1="129.55239" x2="217.19135" y2="129.55239"/><circle class="cls-1" cx="18.61765" cy="79.2645" r="7.93663"/><circle class="cls-1" cx="18.61765" cy="95.13776" r="7.93663"/><circle class="cls-1" cx="18.61765" cy="111.01103" r="7.93663"/><circle class="cls-1" cx="66.67293" cy="79.2645" r="7.93663"/><circle class="cls-1" cx="66.67293" cy="95.13776" r="7.93663"/><circle class="cls-1" cx="66.67293" cy="111.01103" r="7.93663"/><circle class="cls-1" cx="110.01767" cy="79.2645" r="7.93663"/><circle class="cls-1" cx="110.01767" cy="95.13776" r="7.93663"/><circle class="cls-1" cx="110.01767" cy="111.01103" r="7.93663"/><circle class="cls-1" cx="154.18892" cy="79.06325" r="7.93663"/><circle class="cls-1" cx="154.18892" cy="94.93651" r="7.93663"/><circle class="cls-1" cx="154.18892" cy="110.80977" r="7.93663"/><circle class="cls-1" cx="202.91913" cy="79.06325" r="7.93663"/><circle class="cls-1" cx="202.91913" cy="94.93651" r="7.93663"/><circle class="cls-1" cx="202.91913" cy="110.80977" r="7.93663"/><path class="cls-1" d="M81.06287,71.12661H85.9168a0,0,0,0,1,0,0V86.08225a2.427,2.427,0,0,1-2.427,2.427h0a2.427,2.427,0,0,1-2.427-2.427V71.12661A0,0,0,0,1,81.06287,71.12661Z"/><path class="cls-1" d="M86.65572,71.52706h4.85393a0,0,0,0,1,0,0v9.70126a2.427,2.427,0,0,1-2.427,2.427h0a2.427,2.427,0,0,1-2.427-2.427V71.52706A0,0,0,0,1,86.65572,71.52706Z"/><path class="cls-1" d="M91.572,71.32787h4.85393a0,0,0,0,1,0,0V90.637a2.427,2.427,0,0,1-2.427,2.427h0a2.427,2.427,0,0,1-2.427-2.427V71.32787A0,0,0,0,1,91.572,71.32787Z"/><path class="cls-1" d="M122.10557,71.22724h4.85393a0,0,0,0,1,0,0V81.22832a2.427,2.427,0,0,1-2.427,2.427h0a2.427,2.427,0,0,1-2.427-2.427V71.22724A0,0,0,0,1,122.10557,71.22724Z"/><path class="cls-1" d="M127.69842,71.62769h4.85393a0,0,0,0,1,0,0V86.18288a2.427,2.427,0,0,1-2.427,2.427h0a2.427,2.427,0,0,1-2.427-2.427V71.62769a0,0,0,0,1,0,0Z"/><path class="cls-1" d="M132.61465,71.42849h4.85393a0,0,0,0,1,0,0v5.409a2.427,2.427,0,0,1-2.427,2.427h0a2.427,2.427,0,0,1-2.427-2.427v-5.409a0,0,0,0,1,0,0Z"/><circle class="cls-1" cx="133.31213" cy="29.99227" r="9.81917"/><circle class="cls-2" cx="133.31213" cy="29.99227" r="2.8459"/><circle class="cls-1" cx="161.06295" cy="29.99227" r="9.81917"/><path class="cls-1" d="M436.72817,112.99411h13.465a0,0,0,0,1,0,0v6.73253a6.73252,6.73252,0,0,1-6.73252,6.73252h0a6.73252,6.73252,0,0,1-6.73252-6.73252v-6.73253A0,0,0,0,1,436.72817,112.99411Z" transform="translate(590.91709 165.79088) rotate(180)"/><circle class="cls-2" cx="161.06295" cy="29.99227" r="2.8459"/></svg>