<svg id="Livello_1" data-name="Livello 1" xmlns="http://www.w3.org/2000/svg" viewBox="0 0 221.03585 180.29396"><defs><style>.cls-1{fill:#00ff9c;}.cls-1,.cls-2{stroke:#000;stroke-miterlimit:10;stroke-width:2px;}</style></defs><path class="cls-1" d="M237.90121,137.26616v7.35032h-11.793v24.51076a3.63705,3.63705,0,1,1-7.2741,0V144.61648H53.09348v-5.272a28.73022,28.73022,0,0,1,19.37217-27.1706L130.4677,92.1725,177.592,75.92731a26.26807,26.26807,0,0,1,30.99356,11.1638l3.0984,5.08139,25.12087,41.18487A7.56321,7.56321,0,0,1,237.90121,137.26616Z" transform="translate(-34.98208 -34.35302)"/><rect class="cls-1" x="18.11141" y="110.26346" width="184.80773" height="47.82104"/><path class="cls-1" d="M1,158.0845H220.03585a0,0,0,0,1,0,0v0A21.20944,21.20944,0,0,1,198.82641,179.294H22.20944A21.20944,21.20944,0,0,1,1,158.08453v0a0,0,0,0,1,0,0Z"/><circle class="cls-1" cx="53.42913" cy="139.20941" r="8.48378"/><circle class="cls-1" cx="86.64212" cy="125.6902" r="8.48378"/><circle class="cls-1" cx="112.45517" cy="142.65777" r="8.48378"/><circle class="cls-1" cx="142.14374" cy="125.6902" r="8.48378"/><circle class="cls-1" cx="168.9691" cy="142.81951" r="8.48378"/><circle class="cls-2" cx="112.45517" cy="142.65777" r="3.6101"/><circle class="cls-2" cx="142.14374" cy="125.6902" r="3.6101"/><circle class="cls-2" cx="168.9691" cy="142.81951" r="3.6101"/><circle class="cls-2" cx="86.64212" cy="125.6902" r="3.6101"/><circle class="cls-2" cx="53.42913" cy="139.20941" r="3.6101"/><rect class="cls-1" x="170.89887" y="97.3134" width="15.71939" height="15.71939" rx="4.80171" transform="translate(-7.7671 -70.77988) rotate(12.58669)"/><rect class="cls-1" x="186.32007" y="105.4989" width="9.09598" height="4.75606" rx="1.20145" transform="translate(-6.88686 -73.35375) rotate(12.58669)"/><rect class="cls-1" x="162.10108" y="100.09122" width="9.09598" height="4.75606" rx="1.20145" transform="translate(-8.64733 -68.206) rotate(12.58669)"/><rect class="cls-1" x="174.32439" y="81.97178" width="15.71939" height="15.71939" rx="4.80171" transform="translate(-11.02796 -71.89505) rotate(12.58669)"/><rect class="cls-1" x="189.74559" y="90.15729" width="9.09598" height="4.75606" rx="1.20145" transform="translate(-10.14773 -74.46893) rotate(12.58669)"/><rect class="cls-1" x="165.52659" y="84.74961" width="9.09598" height="4.75606" rx="1.20145" transform="translate(-11.9082 -69.32117) rotate(12.58669)"/><rect class="cls-1" x="177.7499" y="66.63017" width="15.71939" height="15.71939" rx="4.80171" transform="translate(-14.28883 -73.01022) rotate(12.58669)"/><rect class="cls-1" x="193.1711" y="74.81568" width="9.09598" height="4.75606" rx="1.20145" transform="translate(-13.4086 -75.5841) rotate(12.58669)"/><rect class="cls-1" x="168.95211" y="69.408" width="9.09598" height="4.75606" rx="1.20145" transform="translate(-15.16906 -70.43635) rotate(12.58669)"/><rect class="cls-1" x="181.17541" y="51.28856" width="15.71939" height="15.71939" rx="4.80171" transform="matrix(0.97597, 0.21792, -0.21792, 0.97597, -17.5497, -74.1254)"/><rect class="cls-1" x="196.59662" y="59.47406" width="9.09598" height="4.75606" rx="1.20145" transform="translate(-16.66946 -76.69928) rotate(12.58669)"/><rect class="cls-1" x="172.37762" y="54.06638" width="9.09598" height="4.75606" rx="1.20145" transform="translate(-18.42993 -71.55152) rotate(12.58669)"/><rect class="cls-1" x="184.60093" y="35.94695" width="15.71939" height="15.71939" rx="4.80171" transform="translate(-20.81056 -75.24057) rotate(12.58669)"/><rect class="cls-1" x="200.02213" y="44.13245" width="9.09598" height="4.75606" rx="1.20145" transform="translate(-19.93033 -77.81445) rotate(12.58669)"/><rect class="cls-1" x="175.80313" y="38.72477" width="9.09598" height="4.75606" rx="1.20145" transform="translate(-21.6908 -72.66669) rotate(12.58669)"/><path class="cls-1" d="M24.68051,110.66107h7.26854a0,0,0,0,1,0,0v23.99368a3.63427,3.63427,0,0,1-3.63427,3.63427h0a3.63427,3.63427,0,0,1-3.63427-3.63427V110.66107A0,0,0,0,1,24.68051,110.66107Z"/><path class="cls-1" d="M31.94906,110.66107H39.2176a0,0,0,0,1,0,0v7.78477a3.63427,3.63427,0,0,1-3.63427,3.63427h0a3.63427,3.63427,0,0,1-3.63427-3.63427v-7.78477a0,0,0,0,1,0,0Z"/><path class="cls-1" d="M39.2176,111.4969h7.26854a0,0,0,0,1,0,0V125.666a3.63427,3.63427,0,0,1-3.63427,3.63427h0A3.63427,3.63427,0,0,1,39.2176,125.666V111.4969A0,0,0,0,1,39.2176,111.4969Z"/><path class="cls-1" d="M211.56956,145.01693h7.26456v10.82055a3.63229,3.63229,0,1,1-7.26456,0Z" transform="translate(-34.98208 -34.35302)"/><path class="cls-1" d="M194.52358,145.01693h7.26456v6.6544a3.63228,3.63228,0,0,1-7.26456,0Z" transform="translate(-34.98208 -34.35302)"/><circle class="cls-1" cx="58.7363" cy="86.89817" r="1.69707"/><circle class="cls-1" cx="100.38396" cy="97.43863" r="1.69707"/><circle class="cls-1" cx="33.64613" cy="99.1357" r="1.69707"/><circle class="cls-1" cx="114.3305" cy="64.2453" r="1.69707"/><circle class="cls-1" cx="155.88599" cy="99.1357" r="1.69707"/><circle class="cls-1" cx="172.57919" cy="77.25121" r="1.69707"/><path class="cls-1" d="M180.86815,109.12522h4.07575a7.45544,7.45544,0,0,1,7.45544,7.45544v0a0,0,0,0,1,0,0H173.41271a0,0,0,0,1,0,0v0A7.45544,7.45544,0,0,1,180.86815,109.12522Z" transform="translate(-5.99386 -71.49911) rotate(12.58669)"/><path class="cls-1" d="M168.08708,108.40327h4.07575a7.45544,7.45544,0,0,1,7.45544,7.45544v0a0,0,0,0,1,0,0H160.63164a0,0,0,0,1,0,0v0A7.45544,7.45544,0,0,1,168.08708,108.40327Z" transform="translate(-6.45834 -68.73125) rotate(12.58669)"/><path class="cls-1" d="M184.8467,110.26346H192.656a0,0,0,0,1,0,0v21.43121a3.90464,3.90464,0,0,1-3.90464,3.90464h0a3.90464,3.90464,0,0,1-3.90464-3.90464V110.26346A0,0,0,0,1,184.8467,110.26346Z"/><line class="cls-1" x1="3.83829" y1="168.68923" x2="217.19135" y2="168.68923"/></svg>