<svg id="Livello_1" data-name="Livello 1" xmlns="http://www.w3.org/2000/svg" viewBox="0 0 221.03585 137.02049"><defs><style>.cls-1{fill:#00ff9c;}.cls-1,.cls-2{stroke:#000;stroke-miterlimit:10;stroke-width:2px;}</style></defs><path class="cls-1" d="M341.294,235.83071V243.181H329.501V267.6918a3.63705,3.63705,0,1,1-7.2741,0V243.181H156.48623v-5.272a28.73023,28.73023,0,0,1,19.37217-27.1706l58.00205-20.00135,47.1243-16.2452a26.26807,26.26807,0,0,1,30.99356,11.1638l3.0984,5.0814,25.12087,41.18486A7.56323,7.56323,0,0,1,341.294,235.83071Z" transform="translate(-138.37483 -172.05442)"/><rect class="cls-1" x="14.81953" y="71.12661" width="191.39148" height="14.42219" rx="7.21109"/><rect class="cls-1" x="11.48666" y="85.5488" width="198.05721" height="14.42219" rx="7.21109"/><rect class="cls-1" x="8.17986" y="99.69641" width="204.67081" height="14.42219" rx="7.21109"/><path class="cls-1" d="M1,114.811H220.03585a0,0,0,0,1,0,0v0a21.20944,21.20944,0,0,1-21.20944,21.20944H22.20944A21.20944,21.20944,0,0,1,1,114.81106v0a0,0,0,0,1,0,0Z"/><path class="cls-1" d="M25.58406,71.12661H32.8526a0,0,0,0,1,0,0V95.12029a3.63427,3.63427,0,0,1-3.63427,3.63427h0a3.63427,3.63427,0,0,1-3.63427-3.63427V71.12661A0,0,0,0,1,25.58406,71.12661Z"/><path class="cls-1" d="M33.64613,71.12661h7.26854a0,0,0,0,1,0,0v7.78477a3.63427,3.63427,0,0,1-3.63427,3.63427h0a3.63427,3.63427,0,0,1-3.63427-3.63427V71.12661A0,0,0,0,1,33.64613,71.12661Z"/><path class="cls-1" d="M40.91467,71.12661h7.26854a0,0,0,0,1,0,0V85.29574A3.63427,3.63427,0,0,1,44.54894,88.93h0a3.63427,3.63427,0,0,1-3.63427-3.63427V71.12661A0,0,0,0,1,40.91467,71.12661Z"/><path class="cls-1" d="M58.7363,99.971h7.26854a0,0,0,0,1,0,0v15.70813a3.63427,3.63427,0,0,1-3.63427,3.63427h0a3.63427,3.63427,0,0,1-3.63427-3.63427V99.971A0,0,0,0,1,58.7363,99.971Z"/><path class="cls-1" d="M66.79837,99.69641h7.26854a0,0,0,0,1,0,0v7.78477a3.63427,3.63427,0,0,1-3.63427,3.63427h0a3.63427,3.63427,0,0,1-3.63427-3.63427V99.69641A0,0,0,0,1,66.79837,99.69641Z"/><path class="cls-1" d="M74.06691,99.971h7.26854a0,0,0,0,1,0,0v14.16913a3.63427,3.63427,0,0,1-3.63427,3.63427h0a3.63427,3.63427,0,0,1-3.63427-3.63427V99.971a0,0,0,0,1,0,0Z"/><path class="cls-1" d="M96.82428,71.12661h7.26854a0,0,0,0,1,0,0V95.12029a3.63427,3.63427,0,0,1-3.63427,3.63427h0a3.63427,3.63427,0,0,1-3.63427-3.63427V71.12661a0,0,0,0,1,0,0Z"/><path class="cls-1" d="M104.88635,71.12661h7.26854a0,0,0,0,1,0,0V89.69035a3.63427,3.63427,0,0,1-3.63427,3.63427h0a3.63427,3.63427,0,0,1-3.63427-3.63427V71.12661A0,0,0,0,1,104.88635,71.12661Z"/><path class="cls-1" d="M112.15489,71.12661h7.26854a0,0,0,0,1,0,0V85.29574A3.63427,3.63427,0,0,1,115.78916,88.93h0a3.63427,3.63427,0,0,1-3.63427-3.63427V71.12661A0,0,0,0,1,112.15489,71.12661Z"/><path class="cls-1" d="M119.42343,71.12661H126.692a0,0,0,0,1,0,0V92.11732a3.63427,3.63427,0,0,1-3.63427,3.63427h0a3.63427,3.63427,0,0,1-3.63427-3.63427V71.12661A0,0,0,0,1,119.42343,71.12661Z"/><path class="cls-1" d="M135.69132,99.69641h6.69783a.28536.28536,0,0,1,.28536.28536v19.54005a3.63427,3.63427,0,0,1-3.63427,3.63427h0a3.63427,3.63427,0,0,1-3.63427-3.63427V99.98176A.28536.28536,0,0,1,135.69132,99.69641Z"/><path class="cls-1" d="M143.468,99.69641h7.26854a0,0,0,0,1,0,0v7.78477a3.63427,3.63427,0,0,1-3.63427,3.63427h0a3.63427,3.63427,0,0,1-3.63427-3.63427V99.69641A0,0,0,0,1,143.468,99.69641Z"/><path class="cls-1" d="M158.00511,99.69641h7.26854a0,0,0,0,1,0,0v18.5108a3.63427,3.63427,0,0,1-3.63427,3.63427h0a3.63427,3.63427,0,0,1-3.63427-3.63427V99.69641A0,0,0,0,1,158.00511,99.69641Z"/><path class="cls-1" d="M150.73657,99.69641h7.26854a0,0,0,0,1,0,0v14.16913a3.63427,3.63427,0,0,1-3.63427,3.63427h0a3.63427,3.63427,0,0,1-3.63427-3.63427V99.69641A0,0,0,0,1,150.73657,99.69641Z"/><path class="cls-1" d="M314.96231,243.58148h7.26456V254.402a3.63229,3.63229,0,1,1-7.26456,0Z" transform="translate(-138.37483 -172.05442)"/><path class="cls-1" d="M306.43932,243.58148h7.26456v6.6544a3.63228,3.63228,0,0,1-7.26456,0Z" transform="translate(-138.37483 -172.05442)"/><circle class="cls-2" cx="58.7363" cy="47.76132" r="1.69707"/><circle class="cls-2" cx="100.38396" cy="58.30178" r="1.69707"/><circle class="cls-2" cx="33.64613" cy="55.86223" r="1.69707"/><circle class="cls-2" cx="103.7781" cy="25.10845" r="1.69707"/><circle class="cls-2" cx="176.58749" cy="63.39299" r="1.69707"/><circle class="cls-2" cx="133.31213" cy="63.39299" r="1.69707"/><circle class="cls-2" cx="151.24379" cy="10.26068" r="1.69707"/><circle class="cls-2" cx="178.91684" cy="38.11437" r="1.69707"/><path class="cls-1" d="M184.8467,71.12661H192.656a0,0,0,0,1,0,0V92.55782a3.90464,3.90464,0,0,1-3.90464,3.90464h0a3.90464,3.90464,0,0,1-3.90464-3.90464V71.12661a0,0,0,0,1,0,0Z"/><line class="cls-1" x1="3.83846" y1="125.41577" x2="217.19135" y2="125.41577"/><path class="cls-1" d="M273.88608,198.79928l-5.19726,5.19726a12.14325,12.14325,0,0,1,3.0052-19.36767A12.13032,12.13032,0,0,0,273.88608,198.79928Z" transform="translate(-138.37483 -172.05442)"/><path class="cls-1" d="M293.99474,207.01184l-5.19726,5.19726a12.14322,12.14322,0,0,1,3.0052-19.36766A12.1303,12.1303,0,0,0,293.99474,207.01184Z" transform="translate(-138.37483 -172.05442)"/><path class="cls-1" d="M259.82863,218.62362l-5.19726,5.19726a12.14325,12.14325,0,0,1,3.00521-19.36767A12.13033,12.13033,0,0,0,259.82863,218.62362Z" transform="translate(-138.37483 -172.05442)"/></svg>