<svg id="Livello_1" data-name="Livello 1" xmlns="http://www.w3.org/2000/svg" viewBox="0 0 114.30669 181.03531"><defs><style>.cls-1{fill:#00ff9c;}.cls-1,.cls-2{stroke:#000;stroke-miterlimit:10;stroke-width:2px;}</style></defs><path class="cls-1" d="M308.32064,285.3722a1.1276,1.1276,0,1,1-1.12416-1.131A1.12484,1.12484,0,0,1,308.32064,285.3722Z" transform="translate(-221.23249 -228.04106)"/><path class="cls-1" d="M324.53865,351.53277v40.6341a7.43159,7.43159,0,0,1-7.99249,7.4235,7.62315,7.62315,0,0,1-6.89568-7.69771v-18.6582a7.23575,7.23575,0,0,0-9.92553-6.71754l-.13714.05485a7.22206,7.22206,0,0,0-4.54452,6.71068v27.343a7.451,7.451,0,1,1-14.9019,0V372.43931a1.72457,1.72457,0,0,0-1.73423-1.72052h-.02059a55.63108,55.63108,0,0,1-9.00009-.71972,1.71223,1.71223,0,0,0-1.981,1.69311v8.93152a7.09253,7.09253,0,0,1-7.09449,7.10136h-.69232a7.09843,7.09843,0,0,1-7.10136-7.10136V368.4431a6.88067,6.88067,0,0,0-3.304-5.88812c-.39068-.23989-.76763-.473-1.15839-.71972a7.09528,7.09528,0,0,0-10.92619,5.97033v5.85385a7.08485,7.08485,0,0,1-7.66348,7.074,7.2765,7.2765,0,0,1-6.53924-7.34129V323.41523a55.78224,55.78224,0,0,1-.69232-9.21258l.00686-.00686a12.02037,12.02037,0,0,1,12.02292,12.023v9.51419a9.83295,9.83295,0,1,0,19.66589,0v-3.81116a30.07874,30.07874,0,0,0,19.65894,12.4,30.40245,30.40245,0,0,0,7.4784.32215,29.567,29.567,0,0,0,12.19427-3.71518A30.23157,30.23157,0,0,0,308.6976,317.013c.02744-.41812.06175-.82942.06861-1.24754a1.10212,1.10212,0,0,1,.30156.03426,1.51978,1.51978,0,0,1,.8088.425,1.58786,1.58786,0,0,1,.45937,1.11044v19.9949a14.21718,14.21718,0,0,0,14.20271,14.20271Z" transform="translate(-221.23249 -228.04106)"/><path class="cls-1" d="M334.50518,312.62606a55.5596,55.5596,0,0,0-2.86526-15.841V270.04193a7.5367,7.5367,0,0,0-7.5367-7.53671h-1.37763a7.53671,7.53671,0,0,0-7.53671,7.53671v2.17629c-.7539-.65806-1.52856-1.29553-2.31677-1.91246a56.27131,56.27131,0,0,0-4.86683-3.41358V246.55806a7.5367,7.5367,0,0,0-7.53671-7.5367h-1.37763a7.53669,7.53669,0,0,0-7.5367,7.5367v13.40413a54.3464,54.3464,0,0,0-10.467-1.50116c-1.25428-.06171-2.495-.07543-3.73573-.048V236.57777a7.53671,7.53671,0,0,0-7.5367-7.53671h-1.37763a7.53671,7.53671,0,0,0-7.53671,7.53671v24.60452c-.39753.13024-.80193.26734-1.19955.4113a55.69293,55.69293,0,0,0-11.46087,5.58647V256.05514a7.53329,7.53329,0,0,0-7.53328-7.53328h-1.37763a7.53328,7.53328,0,0,0-7.53327,7.53328v27.151a55.71677,55.71677,0,0,0-9.55528,30.98967,12.02037,12.02037,0,0,1,12.02292,12.023v9.51419a9.81242,9.81242,0,0,0,2.88584,6.95744,10.01857,10.01857,0,0,0,11.58343,1.80741,9.26151,9.26151,0,0,0,5.19662-8.42631v-4.1497A30.02349,30.02349,0,0,1,248.5279,312.112a29.68435,29.68435,0,0,1,4.47607-13.49671c.29478-.46611.59643-.93221.92544-1.3846a30.14337,30.14337,0,0,1,18.74731-12.256,25.50648,25.50648,0,0,1,3.48211-.50037,30.1686,30.1686,0,0,1,32.6284,29.85028l.01513.15376c.08547.43748.17921.88323.26541,1.32145a1.51978,1.51978,0,0,1,.8088.425,1.58786,1.58786,0,0,1,.45937,1.11044v19.9949a14.21718,14.21718,0,0,0,14.20271,14.20271v-4.99012a55.97822,55.97822,0,0,0,9.96653-33.91659Zm-105.30036-13.154a1.12758,1.12758,0,1,1,1.131-1.12413A1.12478,1.12478,0,0,1,229.20482,299.47208Zm10.80972-14.09988a1.1276,1.1276,0,1,1,1.131,1.12412A1.13212,1.13212,0,0,1,240.01454,285.3722Zm2.25519,29.95457a1.131,1.131,0,1,1,1.13094-1.131A1.13068,1.13068,0,0,1,242.26973,315.32677Zm10.93991-27.69942a1.12758,1.12758,0,1,1,1.131-1.131A1.12633,1.12633,0,0,1,253.20964,287.62735Zm7.684-13.9834a1.12758,1.12758,0,0,1,0-2.25515h.00686a1.12758,1.12758,0,1,1-.00686,2.25515Zm18.624-2.25515a1.12758,1.12758,0,1,1,1.131-1.131A1.12628,1.12628,0,0,1,279.5176,271.3888Zm27.67888,15.10752a1.12758,1.12758,0,1,1,1.12416-1.12412A1.13068,1.13068,0,0,1,307.19648,286.49632Zm4.49666,10.2819a1.12758,1.12758,0,1,1,0-2.25514,1.12758,1.12758,0,0,1,0,2.25514Zm1.12408-15.72445a1.12758,1.12758,0,1,1,1.131-1.131A1.12625,1.12625,0,0,1,312.81722,281.05377Zm5.99091,48.89388a1.12758,1.12758,0,1,1,1.12425-1.12417A1.12626,1.12626,0,0,1,318.80813,329.94765Z" transform="translate(-221.23249 -228.04106)"/><path class="cls-1" d="M230.33584,298.348a1.12756,1.12756,0,1,1-1.131-1.131A1.12627,1.12627,0,0,1,230.33584,298.348Z" transform="translate(-221.23249 -228.04106)"/><path class="cls-1" d="M242.26973,285.3722a1.1276,1.1276,0,1,1-1.12417-1.131A1.12479,1.12479,0,0,1,242.26973,285.3722Z" transform="translate(-221.23249 -228.04106)"/><path class="cls-1" d="M243.40067,314.19579a1.12756,1.12756,0,1,1-1.13094-1.131A1.1321,1.1321,0,0,1,243.40067,314.19579Z" transform="translate(-221.23249 -228.04106)"/><path class="cls-1" d="M254.34067,286.49632a1.1276,1.1276,0,1,1-2.25519,0,1.1276,1.1276,0,0,1,2.25519,0Z" transform="translate(-221.23249 -228.04106)"/><path class="cls-1" d="M262.02465,272.51983a1.12756,1.12756,0,1,1-1.131-1.131h.00686A1.13067,1.13067,0,0,1,262.02465,272.51983Z" transform="translate(-221.23249 -228.04106)"/><path class="cls-1" d="M280.64863,270.25777a1.1276,1.1276,0,1,1-1.131-1.12412A1.13213,1.13213,0,0,1,280.64863,270.25777Z" transform="translate(-221.23249 -228.04106)"/><path class="cls-1" d="M308.32064,285.3722a1.1276,1.1276,0,1,1-1.12416-1.131A1.12484,1.12484,0,0,1,308.32064,285.3722Z" transform="translate(-221.23249 -228.04106)"/><path class="cls-1" d="M310.33594,317.33516V325.17a47.19062,47.19062,0,0,0-1.26817-9.37027,1.51978,1.51978,0,0,1,.8088.425A1.58786,1.58786,0,0,1,310.33594,317.33516Z" transform="translate(-221.23249 -228.04106)"/><path class="cls-1" d="M312.81722,295.64724a1.1276,1.1276,0,1,1-1.12408-1.12416A1.12625,1.12625,0,0,1,312.81722,295.64724Z" transform="translate(-221.23249 -228.04106)"/><path class="cls-1" d="M313.94824,279.92279a1.12756,1.12756,0,1,1-2.2551,0,1.12756,1.12756,0,0,1,2.2551,0Z" transform="translate(-221.23249 -228.04106)"/><path class="cls-1" d="M319.93238,328.82348a1.1276,1.1276,0,1,1-1.12425-1.131A1.12488,1.12488,0,0,1,319.93238,328.82348Z" transform="translate(-221.23249 -228.04106)"/><path class="cls-2" d="M313.94824,279.92279a1.12756,1.12756,0,1,1-2.2551,0,1.12756,1.12756,0,0,1,2.2551,0Z" transform="translate(-221.23249 -228.04106)"/><path class="cls-2" d="M319.93238,328.82348a1.1276,1.1276,0,1,1-1.12425-1.131A1.12488,1.12488,0,0,1,319.93238,328.82348Z" transform="translate(-221.23249 -228.04106)"/><circle class="cls-2" cx="15.38561" cy="122.36512" r="1.12788"/><circle class="cls-2" cx="75.41089" cy="123.493" r="1.12788"/><circle class="cls-2" cx="85.9635" cy="123.493" r="1.12788"/><path class="cls-2" d="M312.81722,295.64724a1.1276,1.1276,0,1,1-1.12408-1.12416A1.12625,1.12625,0,0,1,312.81722,295.64724Z" transform="translate(-221.23249 -228.04106)"/><circle class="cls-2" cx="84.83562" cy="109.62845" r="1.12788"/><path class="cls-2" d="M280.64863,270.25777a1.1276,1.1276,0,1,1-1.131-1.12412A1.13213,1.13213,0,0,1,280.64863,270.25777Z" transform="translate(-221.23249 -228.04106)"/><path class="cls-2" d="M242.26973,285.3722a1.1276,1.1276,0,1,1-1.12417-1.131A1.12479,1.12479,0,0,1,242.26973,285.3722Z" transform="translate(-221.23249 -228.04106)"/><path class="cls-2" d="M254.34067,286.49632a1.1276,1.1276,0,1,1-2.25519,0,1.1276,1.1276,0,0,1,2.25519,0Z" transform="translate(-221.23249 -228.04106)"/><circle class="cls-2" cx="56.03041" cy="129.77201" r="1.12788"/><circle class="cls-2" cx="46.76406" cy="121.23724" r="1.12788"/><circle class="cls-2" cx="6.84711" cy="101.90944" r="1.12788"/><path class="cls-2" d="M262.02465,272.51983a1.12756,1.12756,0,1,1-1.131-1.131h.00686A1.13067,1.13067,0,0,1,262.02465,272.51983Z" transform="translate(-221.23249 -228.04106)"/><path class="cls-2" d="M243.40067,314.19579a1.12756,1.12756,0,1,1-1.13094-1.131A1.1321,1.1321,0,0,1,243.40067,314.19579Z" transform="translate(-221.23249 -228.04106)"/><path class="cls-2" d="M230.33584,298.348a1.12756,1.12756,0,1,1-1.131-1.131A1.12627,1.12627,0,0,1,230.33584,298.348Z" transform="translate(-221.23249 -228.04106)"/><circle class="cls-2" cx="23.29616" cy="108.50057" r="1.12788"/><circle class="cls-2" cx="34.23382" cy="125.74876" r="1.12788"/><rect class="cls-1" x="238.67829" y="292.05582" width="7.18966" height="7.18966" rx="2.19618" transform="translate(343.22944 273.27907) rotate(161.88532)"/><rect class="cls-1" x="234.79928" y="296.32746" width="4.16028" height="2.1753" rx="0.54951" transform="translate(333.25799 278.39754) rotate(161.88532)"/><rect class="cls-1" x="245.58667" y="292.79854" width="4.16028" height="2.1753" rx="0.54951" transform="translate(353.20089 268.16059) rotate(161.88532)"/><rect class="cls-1" x="289.97226" y="272.88251" width="7.18966" height="7.18966" rx="2.19618" transform="translate(209.14629 427.78298) rotate(-153.11468)"/><rect class="cls-1" x="286.42537" y="272.82343" width="4.16028" height="2.1753" rx="0.54951" transform="translate(200.7307 420.63897) rotate(-153.11468)"/><rect class="cls-1" x="296.54853" y="277.95595" width="4.16028" height="2.1753" rx="0.54951" transform="translate(217.56189 434.92699) rotate(-153.11468)"/><rect class="cls-1" x="317.00557" y="313.75795" width="7.18966" height="7.18966" rx="2.19618" transform="translate(527.39659 -53.12722) rotate(116.88532)"/><rect class="cls-1" x="315.95401" y="321.32671" width="4.16028" height="2.1753" rx="0.54951" transform="translate(528.18435 -43.48789) rotate(116.88532)"/><rect class="cls-1" x="321.08652" y="311.20355" width="4.16028" height="2.1753" rx="0.54951" transform="translate(526.60883 -62.76656) rotate(116.88532)"/><rect class="cls-1" x="282.62331" y="349.06711" width="7.18966" height="7.18966" rx="2.19618" transform="translate(160.79157 568.59441) rotate(-153.11468)"/><rect class="cls-1" x="279.07642" y="349.00803" width="4.16028" height="2.1753" rx="0.54951" transform="translate(152.37598 561.4504) rotate(-153.11468)"/><rect class="cls-1" x="289.19958" y="354.14054" width="4.16028" height="2.1753" rx="0.54951" transform="translate(169.20717 575.73842) rotate(-153.11468)"/><rect class="cls-1" x="238.67829" y="323.10755" width="7.18966" height="7.18966" rx="2.19618" transform="translate(89.39046 499.60895) rotate(-153.11468)"/><rect class="cls-1" x="235.1314" y="323.04847" width="4.16028" height="2.1753" rx="0.54951" transform="translate(80.97487 492.46494) rotate(-153.11468)"/><rect class="cls-1" x="245.25456" y="328.18098" width="4.16028" height="2.1753" rx="0.54951" transform="translate(97.80606 506.75296) rotate(-153.11468)"/><path class="cls-1" d="M262.02465,272.51983h-1.12417v-1.131A1.13067,1.13067,0,0,1,262.02465,272.51983Z" transform="translate(-221.23249 -228.04106)"/><path class="cls-1" d="M242.26973,285.3722a1.1276,1.1276,0,1,1-1.12417-1.131A1.12479,1.12479,0,0,1,242.26973,285.3722Z" transform="translate(-221.23249 -228.04106)"/></svg>