<svg id="Livello_1" data-name="Livello 1" xmlns="http://www.w3.org/2000/svg" viewBox="0 0 111.24303 181.03531"><defs><style>.cls-1{fill:#00ff9c;}.cls-1,.cls-2{stroke:#000;stroke-miterlimit:10;stroke-width:2px;}</style></defs><path class="cls-1" d="M354.35376,157.77449a49.27281,49.27281,0,1,0,49.26339,49.28223A49.26324,49.26324,0,0,0,354.35376,157.77449Zm0,90.28169a40.99952,40.99952,0,1,1,40.99957-40.99946A40.9965,40.9965,0,0,1,354.35376,248.05618Z" transform="translate(-299.82438 -156.77449)"/><path class="cls-1" d="M400.33973,281.81032v39.52039a7.23464,7.23464,0,0,1-7.77782,7.22274,7.417,7.417,0,0,1-6.70611-7.48609V302.91984a7.04064,7.04064,0,0,0-9.65593-6.53689l-.13211.05285a7.0321,7.0321,0,0,0-4.42,6.529V329.558a7.2469,7.2469,0,1,1-14.49379,0V302.14693a1.67569,1.67569,0,0,0-1.68483-1.675h-.01972a54.54976,54.54976,0,0,1-8.75934-.69952,1.661,1.661,0,0,0-1.92129,1.64543v8.69036a6.907,6.907,0,0,1-6.907,6.907h-.67a6.907,6.907,0,0,1-6.907-6.907V298.255a6.69745,6.69745,0,0,0-3.21238-5.72388c-.38057-.23128-.74777-.46161-1.12563-.70282a6.90312,6.90312,0,0,0-10.62867,5.806v5.69507a6.89854,6.89854,0,0,1-7.45805,6.88553,7.08027,7.08027,0,0,1-6.35589-7.14446v-48.612a53.96463,53.96463,0,0,1-.6788-8.9574l.00887-.00879a11.69,11.69,0,0,1,11.69545,11.69549v9.252a9.56236,9.56236,0,1,0,19.12472,0v-3.70474A29.27161,29.27161,0,0,0,350.77912,274.795a29.66027,29.66027,0,0,0,7.27153.3153,28.7207,28.7207,0,0,0,11.863-3.616,29.40809,29.40809,0,0,0,15.016-23.26293c.02959-.404.05912-.808.069-1.212h0a1.52726,1.52726,0,0,1,1.52727,1.52726v19.44982a13.82613,13.82613,0,0,0,13.81387,13.81388Z" transform="translate(-299.82438 -156.77449)"/><path class="cls-1" d="M409.14832,255.8674a54.03539,54.03539,0,0,1-8.80859,21.08539v4.85753a13.82613,13.82613,0,0,1-13.81387-13.81388V256.16592a53.705,53.705,0,0,0-1.48017-10.33939,1.463,1.463,0,0,1-.02737-.2654,29.33648,29.33648,0,0,0-31.73655-28.97772,25.74838,25.74838,0,0,0-3.38944.48285,29.38488,29.38488,0,0,0-18.23786,11.92211c-.31531.4434-.611.8966-.89666,1.34986a28.87121,28.87121,0,0,0-4.355,13.12421,29.22056,29.22056,0,0,0,5.25167,19.27247v3.70474a9.56236,9.56236,0,1,1-19.12472,0v-9.252a11.69,11.69,0,0,0-11.69551-11.69551,54.65416,54.65416,0,0,1,29.92357-48.37823,53.717,53.717,0,0,1,6.51282-2.78842,54.48042,54.48042,0,0,1,20.79974-3.0446,53.58114,53.58114,0,0,1,11.794,1.87209,54.4949,54.4949,0,0,1,19.12472,9.64607,55.35211,55.35211,0,0,1,14.95685,17.9916,54.22211,54.22211,0,0,1,5.20236,15.07509,53.6083,53.6083,0,0,1,.88679,8.0992A54.58686,54.58686,0,0,1,409.14832,255.8674Z" transform="translate(-299.82438 -156.77449)"/><circle class="cls-1" cx="21.32263" cy="102.71228" r="5.65641"/><circle class="cls-2" cx="21.32263" cy="102.71228" r="2.40697"/><circle class="cls-1" cx="18.91567" cy="63.07065" r="5.65641"/><circle class="cls-2" cx="18.91567" cy="63.07065" r="2.40697"/><circle class="cls-1" cx="43.54846" cy="45.17968" r="5.65641"/><circle class="cls-2" cx="43.54846" cy="45.17968" r="2.40697"/><circle class="cls-1" cx="96.90101" cy="73.08479" r="5.65641"/><circle class="cls-2" cx="96.90101" cy="73.08479" r="2.40697"/><circle class="cls-1" cx="65.37467" cy="127.44279" r="5.65641"/><circle class="cls-2" cx="65.37467" cy="127.44279" r="2.40697"/><circle class="cls-1" cx="81.41039" cy="57.41424" r="5.65641"/><circle class="cls-2" cx="81.41039" cy="57.41424" r="2.40697"/><circle class="cls-1" cx="36.76032" cy="125.03582" r="5.65641"/><circle class="cls-2" cx="36.76032" cy="125.03582" r="2.40697"/><circle class="cls-1" cx="10.19658" cy="124.14077" r="5.65641"/><circle class="cls-2" cx="10.19658" cy="124.14077" r="2.40697"/><circle class="cls-1" cx="99.30798" cy="97.54203" r="5.65641"/><circle class="cls-1" cx="92.16121" cy="134.37649" r="5.65641"/><circle class="cls-2" cx="99.30798" cy="97.54203" r="2.40697"/><circle class="cls-2" cx="92.16121" cy="134.37649" r="2.40697"/></svg>