<svg id="Livello_1" data-name="Livello 1" xmlns="http://www.w3.org/2000/svg" viewBox="0 0 136.33776 181.03531"><defs><style>.cls-1{fill:#00ff9c;}.cls-1,.cls-2{stroke:#000;stroke-miterlimit:10;stroke-width:2px;}</style></defs><circle class="cls-1" cx="102.62932" cy="33.26113" r="1.34907"/><path class="cls-1" d="M404.61208,289.99634v48.59881a8.89655,8.89655,0,0,1-9.5645,8.88191,9.12082,9.12082,0,0,1-8.24661-9.20576V315.955a8.658,8.658,0,0,0-11.874-8.03851l-.16245.065a8.64746,8.64746,0,0,0-5.43531,8.02874v32.70211a8.91162,8.91162,0,1,1-17.82323,0V315.00458a2.06062,2.06062,0,0,0-2.07186-2.0598h-.02425a67.07966,67.07966,0,0,1-10.77149-.86022,2.04255,2.04255,0,0,0-2.36263,2.02342v10.68666a8.49361,8.49361,0,0,1-8.4936,8.4936h-.82391a8.49362,8.49362,0,0,1-8.49361-8.4936l0-14.57605a8.23591,8.23591,0,0,0-3.95031-7.03874c-.468-.28441-.91954-.56765-1.3842-.86427a8.48886,8.48886,0,0,0-13.07023,7.13967l0,7.00331a8.48322,8.48322,0,0,1-9.17127,8.46724,8.70671,8.70671,0,0,1-7.81593-8.78564V256.36124a66.35983,66.35983,0,0,1-.83474-11.01505l.01091-.01081a14.37533,14.37533,0,0,1,14.38206,14.38213v11.3773a11.759,11.759,0,1,0,23.51795,0V266.539a35.99575,35.99575,0,0,0,23.51787,14.83044,36.47322,36.47322,0,0,0,8.9419.38773,35.3183,35.3183,0,0,0,14.5881-4.44669A36.16358,36.16358,0,0,0,385.662,248.70375c.03639-.49681.0727-.99355.08483-1.49036h0a1.87809,1.87809,0,0,1,1.87809,1.87809v23.91774a17.00219,17.00219,0,0,0,16.98713,16.98712Z" transform="translate(-281.23659 -177.59471)"/><path class="cls-1" d="M415.44413,258.094a66.448,66.448,0,0,1-10.832,25.929v5.97337A17.00219,17.00219,0,0,1,387.625,273.00922V258.46105c0-4.30309-.98864-8.49252-1.82018-12.7145a1.80031,1.80031,0,0,1-.03366-.32636,36.07552,36.07552,0,0,0-39.0269-35.63434,31.66482,31.66482,0,0,0-4.168.59377,36.13506,36.13506,0,0,0-22.42737,14.6608c-.38773.54525-.75128,1.10255-1.10263,1.65993a35.50331,35.50331,0,0,0-5.35542,16.139A35.933,35.933,0,0,0,320.1488,266.539v4.55577a11.759,11.759,0,1,1-23.51795,0v-11.3773a14.37535,14.37535,0,0,0-14.38214-14.38215,67.209,67.209,0,0,1,36.79746-59.49142,66.05614,66.05614,0,0,1,8.00891-3.429,66.99511,66.99511,0,0,1,25.57775-3.744,65.88835,65.88835,0,0,1,14.50327,2.30214A67.01327,67.01327,0,0,1,390.65405,192.835a68.06713,68.06713,0,0,1,18.39266,22.12453,66.67763,66.67763,0,0,1,6.39742,18.53806,65.92336,65.92336,0,0,1,1.0905,9.95971A67.12642,67.12642,0,0,1,415.44413,258.094Z" transform="translate(-281.23659 -177.59471)"/><circle class="cls-2" cx="109.35542" cy="26.74885" r="1.34907"/><circle class="cls-2" cx="116.51477" cy="85.23612" r="1.34907"/><circle class="cls-2" cx="18.20998" cy="111.05256" r="1.34907"/><circle class="cls-2" cx="90.00718" cy="112.40163" r="1.34907"/><circle class="cls-2" cx="102.62932" cy="112.40163" r="1.34907"/><circle class="cls-2" cx="123.37549" cy="60.77321" r="1.34907"/><circle class="cls-2" cx="108.00635" cy="45.5568" r="1.34907"/><circle class="cls-2" cx="101.28024" cy="95.81802" r="1.34907"/><circle class="cls-2" cx="69.52402" cy="15.18936" r="1.34907"/><circle class="cls-2" cx="90.00718" cy="26.74885" r="1.34907"/><circle class="cls-2" cx="23.62469" cy="33.26113" r="1.34907"/><circle class="cls-2" cx="38.05647" cy="34.6102" r="1.34907"/><circle class="cls-2" cx="66.82587" cy="119.91206" r="1.34907"/><circle class="cls-2" cx="55.74225" cy="109.70349" r="1.34907"/><circle class="cls-2" cx="7.99695" cy="86.58519" r="1.34907"/><circle class="cls-2" cx="47.24716" cy="17.88751" r="1.34907"/><circle class="cls-2" cx="24.97377" cy="67.74067" r="1.34907"/><circle class="cls-2" cx="9.34602" cy="48.78191" r="1.34907"/><circle class="cls-2" cx="27.67192" cy="94.46895" r="1.34907"/><circle class="cls-2" cx="40.75462" cy="115.09978" r="1.34907"/></svg>