<svg id="Livello_1" data-name="Livello 1" xmlns="http://www.w3.org/2000/svg" viewBox="0 0 116.72574 181.3091"><defs><style>.cls-1{fill:#00ff9c;stroke:#000;stroke-miterlimit:10;stroke-width:2px;}</style></defs><rect class="cls-1" x="372.45768" y="343.81362" width="27.93112" height="7.31988" rx="2.03464" transform="translate(-388.05924 -285.0836) rotate(-7.86058)"/><path class="cls-1" d="M410.37115,520.96073a57.35806,57.35806,0,0,1-64.65881-48.97613c-.0949-.69526-.1817-1.39052-.245-2.08578l13.97621-1.92776-3.48412-16.31482a2.95656,2.95656,0,1,1,5.78324-1.2325l3.5711,16.73358,8.16925-1.12979-1.87245-8.75394a2.95656,2.95656,0,1,1,5.78324-1.2325l1.95944,9.17265,8.23251-1.12979-3.105-14.54512a2.95352,2.95352,0,1,1,5.77533-1.24036l3.1998,14.97169,8.65118-1.193-4.17948-19.55411a2.9566,2.9566,0,0,1,5.78333-1.2325l4.26637,19.97282,7.76631-1.07447-5.91758-27.73918a2.95274,2.95274,0,1,1,5.77542-1.2325l6.02029,28.16579,10.07333-1.39052-5.807-27.194a2.95739,2.95739,0,0,1,5.78324-1.2404l5.89395,27.62069,7.45817-1.02707-3.07337-14.37129a2.95739,2.95739,0,0,1,5.78324-1.24041l3.16026,14.7979,8.12189-1.12187c.12644.68735.23706,1.38261.33186,2.07787A57.36005,57.36005,0,0,1,410.37115,520.96073Z" transform="translate(-344.16862 -341.19693)"/><path class="cls-1" d="M459.01334,454.21243l-8.12189,1.12188-3.16026-14.7979a2.95738,2.95738,0,0,0-5.78323,1.24041l3.07336,14.37128-7.45817,1.02708-5.89385-27.6207a2.95743,2.95743,0,0,0-5.78333,1.24041l5.807,27.194-10.07333,1.39052-6.0203-28.16579a2.95274,2.95274,0,1,0-5.77542,1.2325l5.91758,27.73918-7.7663,1.07447L403.70878,441.287a2.95655,2.95655,0,1,0-5.78323,1.2325l4.17938,19.55411-8.65118,1.193-3.1998-14.97175a2.95352,2.95352,0,1,0-5.77532,1.24041l3.105,14.54508-8.23251,1.12979-1.95934-9.17265a2.95656,2.95656,0,1,0-5.78324,1.2325l1.87235,8.75394-8.16924,1.12979-3.571-16.73358a2.95661,2.95661,0,0,0-5.78334,1.2325l3.48412,16.31482-13.9762,1.92776A57.37914,57.37914,0,0,1,384.88948,409.55l-7.82958-56.68717,19.83072-2.74151,7.82947,56.69509A57.3652,57.3652,0,0,1,459.01334,454.21243Z" transform="translate(-344.16862 -341.19693)"/><circle class="cls-1" cx="36.64878" cy="87.67045" r="3.75503"/><circle class="cls-1" cx="51.82868" cy="73.1297" r="3.75503"/><circle class="cls-1" cx="44.23889" cy="20.64921" r="3.75503"/><circle class="cls-1" cx="46.72344" cy="34.8882" r="3.75503"/><circle class="cls-1" cx="46.72344" cy="54.00895" r="3.75503"/><circle class="cls-1" cx="55.58371" cy="87.67045" r="3.75503"/></svg>