<svg id="Livello_1" data-name="Livello 1" xmlns="http://www.w3.org/2000/svg" viewBox="0 0 167.99878 180.03531"><defs><style>.cls-1{fill:#00ff9c;}.cls-1,.cls-2,.cls-3{stroke:#000;stroke-miterlimit:10;}.cls-1,.cls-2{stroke-width:2px;}.cls-2{fill:none;}.cls-3{stroke-width:0.75px;}</style></defs><path class="cls-1" d="M276.83466,333.61374v36.42973a4.27232,4.27232,0,0,0,4.27233,4.27232h1.47831a4.27233,4.27233,0,0,1,4.27233,4.27233V408.1009a12.844,12.844,0,0,1-12.844,12.844H218.94842a12.84406,12.84406,0,0,1-12.84406-12.84406v-29.5127a4.27232,4.27232,0,0,1,4.27232-4.27233h0a4.27232,4.27232,0,0,0,4.27233-4.27232V333.61374a4.27233,4.27233,0,0,0-4.27233-4.27233h0a4.27232,4.27232,0,0,1-4.27232-4.27232V289.019a12.84422,12.84422,0,0,1,12.82786-12.84392.60322.60322,0,0,0,.613-.59683v-4.54352a6.79836,6.79836,0,0,1,6.795-6.795H266.6083a6.79492,6.79492,0,0,1,6.79492,6.79492v4.5436A.60208.60208,0,0,0,274,276.175h.01357a12.84407,12.84407,0,0,1,12.84407,12.84406v36.05a4.27232,4.27232,0,0,1-4.27233,4.27232H281.107A4.27233,4.27233,0,0,0,276.83466,333.61374Z" transform="translate(-205.10436 -241.90957)"/><rect class="cls-1" x="11.02023" y="1.09722" width="60.71281" height="21.23293" rx="6.51653"/><line class="cls-2" x1="25.59375" y1="1.09722" x2="25.59375" y2="22.33015"/><line class="cls-2" x1="18.59898" y1="0.82291" x2="18.59898" y2="22.05585"/><line class="cls-2" x1="33.27429" y1="1.09722" x2="33.27429" y2="22.33015"/><line class="cls-2" x1="41.37664" y1="1.09722" x2="41.37664" y2="22.33015"/><line class="cls-2" x1="50.14403" x2="50.14403" y2="21.23293"/><line class="cls-2" x1="57.82457" x2="57.82457" y2="21.23293"/><line class="cls-2" x1="64.40789" y1="1.09722" x2="64.40789" y2="22.33015"/><rect class="cls-2" x="17.67092" y="89.07142" width="5.31236" height="42.79156" rx="2.65618"/><rect class="cls-2" x="59.09552" y="88.88855" width="5.31236" height="42.79156" rx="2.65618"/><rect class="cls-2" x="38.72045" y="88.88855" width="5.31236" height="42.79156" rx="2.65618"/><path class="cls-1" d="M214.46859,291.28105h21.69518a0,0,0,0,1,0,0v0a9.59083,9.59083,0,0,1-9.59083,9.59083h-2.51352a9.59084,9.59084,0,0,1-9.59084-9.59084v0a0,0,0,0,1,0,0Z" transform="translate(70.24691 -314.51339) rotate(45)"/><path class="cls-1" d="M256.79821,291.24373h21.69518a0,0,0,0,1,0,0v0a9.59083,9.59083,0,0,1-9.59083,9.59083H266.389a9.59083,9.59083,0,0,1-9.59083-9.59083v0A0,0,0,0,1,256.79821,291.24373Z" transform="translate(-336.04401 34.05245) rotate(-45)"/><path class="cls-1" d="M255.32655,316.35992a2.62787,2.62787,0,0,1-3.74336,0l-5.09957-5.09964-5.09964,5.09964a2.65176,2.65176,0,1,1-3.75694-3.74336l6.72721-6.7272a2.56,2.56,0,0,1,2.12937-.74594.83345.83345,0,0,1,.25762-.02715,2.6388,2.6388,0,0,1,1.87168.77309l6.71363,6.7272A2.62789,2.62789,0,0,1,255.32655,316.35992Z" transform="translate(-205.10436 -241.90957)"/><path class="cls-1" d="M353.14343,419.79577H331.97315a18.96663,18.96663,0,0,1-18.64646-22.3728l7.92767-43.18669,4.06785-22.22438h34.47216l4.06776,22.22438,7.92776,43.18669A18.96667,18.96667,0,0,1,353.14343,419.79577Z" transform="translate(-205.10436 -241.90957)"/><polygon class="cls-1" points="154.69 90.102 120.218 90.102 123.157 74.084 125.726 60.084 129.942 37.088 144.966 37.088 149.182 60.084 151.751 74.084 154.69 90.102"/><path class="cls-1" d="M330.83,301.99352l-2.56832,13.99968a20.01057,20.01057,0,0,1-13.89575-26.66328A19.982,19.982,0,0,0,330.83,301.99352Z" transform="translate(-205.10436 -241.90957)"/><path class="cls-1" d="M372.10159,296.57473a19.99707,19.99707,0,0,1-15.24668,19.41847l-2.56841-13.99968a19.98222,19.98222,0,0,0,16.46416-12.6636A19.88568,19.88568,0,0,1,372.10159,296.57473Z" transform="translate(-205.10436 -241.90957)"/><rect class="cls-1" x="122.74649" y="29.4812" width="29.02459" height="7.60644" rx="2.11429"/><rect class="cls-1" x="115.01057" y="151.98262" width="11.86005" height="11.86005" rx="5.93002"/><rect class="cls-3" x="119.39602" y="156.36807" width="3.08915" height="3.08915" rx="1.54457"/><rect class="cls-1" x="142.28153" y="157.91265" width="11.86005" height="11.86005" rx="5.93002"/><rect class="cls-3" x="146.66698" y="162.2981" width="3.08915" height="3.08915" rx="1.54457"/><rect class="cls-1" x="143.8261" y="128.06424" width="11.86005" height="11.86005" rx="5.93002"/><rect class="cls-3" x="148.21155" y="132.44969" width="3.08915" height="3.08915" rx="1.54457"/><rect class="cls-1" x="124.18106" y="96.81799" width="11.86005" height="11.86005" rx="5.93002"/><rect class="cls-3" x="128.56651" y="101.20344" width="3.08915" height="3.08915" rx="1.54457"/><rect class="cls-1" x="140.73695" y="107.0946" width="11.86005" height="11.86005" rx="5.93002"/><rect class="cls-3" x="145.1224" y="111.48005" width="3.08915" height="3.08915" rx="1.54457"/><rect class="cls-1" x="120.94059" y="122.13422" width="11.86005" height="11.86005" rx="5.93002"/><rect class="cls-3" x="125.32604" y="126.51967" width="3.08915" height="3.08915" rx="1.54457"/></svg>