<svg id="Livello_1" data-name="Livello 1" xmlns="http://www.w3.org/2000/svg" viewBox="0 0 82.75327 180.03531"><defs><style>.cls-1{fill:#00ff9c;}.cls-1,.cls-2{stroke:#000;stroke-miterlimit:10;stroke-width:2px;}.cls-2{fill:none;}</style></defs><path class="cls-1" d="M339.92,512.64905v36.42972a4.27233,4.27233,0,0,0,4.27233,4.27233h1.47831a4.27233,4.27233,0,0,1,4.27233,4.27233v29.51278a12.844,12.844,0,0,1-12.844,12.844H282.03372a12.84406,12.84406,0,0,1-12.84406-12.84406v-29.5127a4.27233,4.27233,0,0,1,4.27233-4.27233h0a4.27233,4.27233,0,0,0,4.27233-4.27233V512.64905a4.27233,4.27233,0,0,0-4.27233-4.27233h0a4.27233,4.27233,0,0,1-4.27233-4.27233V468.05431a12.84422,12.84422,0,0,1,12.82786-12.84392.60322.60322,0,0,0,.613-.59683V450.07a6.79837,6.79837,0,0,1,6.795-6.795H329.6936a6.79492,6.79492,0,0,1,6.79492,6.79492v4.54361a.60209.60209,0,0,0,.59677.59677h.01358a12.84406,12.84406,0,0,1,12.84406,12.84406v36.05a4.27233,4.27233,0,0,1-4.27233,4.27233h-1.47831A4.27233,4.27233,0,0,0,339.92,512.64905Z" transform="translate(-268.18966 -420.94488)"/><rect class="cls-1" x="11.02023" y="1.09722" width="60.71281" height="21.23293" rx="6.51653"/><line class="cls-2" x1="25.59375" y1="1.09722" x2="25.59375" y2="22.33015"/><line class="cls-2" x1="18.59898" y1="0.82291" x2="18.59898" y2="22.05585"/><line class="cls-2" x1="33.27429" y1="1.09722" x2="33.27429" y2="22.33015"/><line class="cls-2" x1="41.37664" y1="1.09722" x2="41.37664" y2="22.33015"/><line class="cls-2" x1="50.14403" x2="50.14403" y2="21.23293"/><line class="cls-2" x1="57.82457" x2="57.82457" y2="21.23293"/><line class="cls-2" x1="64.40789" y1="1.09722" x2="64.40789" y2="22.33015"/><rect class="cls-2" x="17.67092" y="89.07142" width="5.31236" height="42.79156" rx="2.65618"/><rect class="cls-2" x="59.09552" y="88.88855" width="5.31236" height="42.79156" rx="2.65618"/><rect class="cls-2" x="38.72045" y="88.88855" width="5.31236" height="42.79156" rx="2.65618"/><path class="cls-1" d="M277.5539,470.31636h21.69518a0,0,0,0,1,0,0v0a9.59083,9.59083,0,0,1-9.59083,9.59083h-2.51351a9.59084,9.59084,0,0,1-9.59084-9.59084v0a0,0,0,0,1,0,0Z" transform="translate(152.23594 -485.71851) rotate(45)"/><path class="cls-1" d="M319.88351,470.279h21.69518a0,0,0,0,1,0,0v0a9.59083,9.59083,0,0,1-9.59083,9.59083h-2.51351a9.59084,9.59084,0,0,1-9.59084-9.59084v0A0,0,0,0,1,319.88351,470.279Z" transform="translate(-507.24914 -47.93659) rotate(-45)"/><path class="cls-1" d="M318.41185,495.39523a2.62787,2.62787,0,0,1-3.74336,0l-5.09957-5.09964-5.09964,5.09964a2.65176,2.65176,0,0,1-3.75694-3.74336l6.72721-6.7272a2.56,2.56,0,0,1,2.12937-.74594.83345.83345,0,0,1,.25762-.02715,2.63876,2.63876,0,0,1,1.87168.77309l6.71363,6.7272A2.62789,2.62789,0,0,1,318.41185,495.39523Z" transform="translate(-268.18966 -420.94488)"/></svg>