<svg id="Livello_1" data-name="Livello 1" xmlns="http://www.w3.org/2000/svg" viewBox="0 0 73.28562 181.03531"><defs><style>.cls-1{fill:#00ff9c;stroke-width:2px;}.cls-1,.cls-2{stroke:#000;stroke-miterlimit:10;}.cls-2{stroke-width:0.75px;}</style></defs><path class="cls-1" d="M244.9944,628.75518H219.45464a22.88128,22.88128,0,0,1-22.495-26.99047l9.56391-52.1003L211.431,522.853h41.5871l4.90733,26.81141,9.564,52.1003A22.88133,22.88133,0,0,1,244.9944,628.75518Z" transform="translate(-195.5817 -448.71987)"/><polygon class="cls-1" points="57.436 74.133 15.849 74.133 19.395 54.808 22.494 37.919 27.58 10.176 45.705 10.176 50.792 37.919 53.89 54.808 57.436 74.133"/><path class="cls-1" d="M218.07553,486.63892l-3.09841,16.88917a24.14065,24.14065,0,0,1-16.76378-32.1665A24.10615,24.10615,0,0,0,218.07553,486.63892Z" transform="translate(-195.5817 -448.71987)"/><path class="cls-1" d="M267.86546,480.1017a24.12441,24.12441,0,0,1-18.39355,23.42639l-3.09851-16.88917a24.10647,24.10647,0,0,0,19.8623-15.27733A23.99017,23.99017,0,0,1,267.86546,480.1017Z" transform="translate(-195.5817 -448.71987)"/><rect class="cls-1" x="18.8998" y="1" width="35.01517" height="9.17639" rx="2.55067"/><rect class="cls-1" x="9.56721" y="148.78532" width="14.30792" height="14.30792" rx="7.15395"/><rect class="cls-2" x="14.8578" y="154.07591" width="3.72674" height="3.72674" rx="1.86337"/><rect class="cls-1" x="42.46681" y="155.93928" width="14.30792" height="14.30792" rx="7.15395"/><rect class="cls-2" x="47.7574" y="161.22987" width="3.72674" height="3.72674" rx="1.86337"/><rect class="cls-1" x="44.33017" y="119.93026" width="14.30792" height="14.30792" rx="7.15395"/><rect class="cls-2" x="49.62077" y="125.22085" width="3.72674" height="3.72674" rx="1.86337"/><rect class="cls-1" x="20.63046" y="82.23489" width="14.30792" height="14.30792" rx="7.15395"/><rect class="cls-2" x="25.92105" y="87.52548" width="3.72674" height="3.72674" rx="1.86337"/><rect class="cls-1" x="40.60344" y="94.63255" width="14.30792" height="14.30792" rx="7.15395"/><rect class="cls-2" x="45.89403" y="99.92315" width="3.72674" height="3.72674" rx="1.86337"/><rect class="cls-1" x="16.72117" y="112.7763" width="14.30792" height="14.30792" rx="7.15395"/><rect class="cls-2" x="22.01176" y="118.06689" width="3.72674" height="3.72674" rx="1.86337"/></svg>