<svg id="Livello_1" data-name="Livello 1" xmlns="http://www.w3.org/2000/svg" viewBox="0 0 59.81138 181.1717"><defs><style>.cls-1{fill:#00ff9c;}.cls-1,.cls-2{stroke:#000;stroke-miterlimit:10;stroke-width:2px;}</style></defs><rect class="cls-1" x="457.28441" y="475.95473" width="8.65959" height="8.65959" rx="2.64519" transform="translate(491.52144 532.64854) rotate(-179.99999)"/><rect class="cls-1" x="452.27357" y="478.9745" width="5.01085" height="2.62005" rx="0.66186" transform="translate(477.85101 532.64853) rotate(-179.99999)"/><rect class="cls-1" x="465.944" y="478.9745" width="5.01085" height="2.62005" rx="0.66186" transform="translate(505.19188 532.64854) rotate(-179.99999)"/><rect class="cls-1" x="457.28441" y="484.61431" width="8.65959" height="8.65959" rx="2.64519" transform="translate(491.52144 549.96771) rotate(-179.99999)"/><rect class="cls-1" x="452.27357" y="487.63408" width="5.01085" height="2.62005" rx="0.66186" transform="translate(477.851 549.96771) rotate(-179.99999)"/><rect class="cls-1" x="465.944" y="487.63408" width="5.01085" height="2.62005" rx="0.66186" transform="translate(505.19187 549.96772) rotate(-179.99999)"/><rect class="cls-1" x="457.28441" y="493.2739" width="8.65959" height="8.65959" rx="2.64519" transform="translate(491.52143 567.28688) rotate(-179.99999)"/><rect class="cls-1" x="452.27356" y="496.29367" width="5.01085" height="2.62005" rx="0.66186" transform="translate(477.851 567.28688) rotate(-179.99999)"/><rect class="cls-1" x="465.944" y="496.29367" width="5.01085" height="2.62005" rx="0.66186" transform="translate(505.19186 567.28689) rotate(-179.99999)"/><rect class="cls-1" x="457.28107" y="428.92061" width="8.65959" height="8.65959" rx="2.64519" transform="translate(491.51478 438.58031) rotate(-179.99999)"/><rect class="cls-1" x="452.27023" y="431.94038" width="5.01085" height="2.62005" rx="0.66186" transform="translate(477.84434 438.58031) rotate(-179.99999)"/><rect class="cls-1" x="465.94066" y="431.94038" width="5.01085" height="2.62005" rx="0.66186" transform="translate(505.18521 438.58032) rotate(-179.99999)"/><rect class="cls-1" x="457.28107" y="437.5802" width="8.65959" height="8.65959" rx="2.64519" transform="translate(491.51477 455.89948) rotate(-179.99999)"/><rect class="cls-1" x="452.27023" y="440.59997" width="5.01085" height="2.62005" rx="0.66186" transform="translate(477.84434 455.89948) rotate(-179.99999)"/><rect class="cls-1" x="465.94066" y="440.59997" width="5.01085" height="2.62005" rx="0.66186" transform="translate(505.1852 455.89949) rotate(-179.99999)"/><rect class="cls-1" x="457.28107" y="446.23978" width="8.65959" height="8.65959" rx="2.64519" transform="translate(491.51476 473.21866) rotate(-179.99999)"/><rect class="cls-1" x="452.27022" y="449.25955" width="5.01085" height="2.62005" rx="0.66186" transform="translate(477.84433 473.21865) rotate(-179.99999)"/><rect class="cls-1" x="465.94066" y="449.25956" width="5.01085" height="2.62005" rx="0.66186" transform="translate(505.1852 473.21866) rotate(-179.99999)"/><rect class="cls-1" x="457.28107" y="515.59405" width="8.65959" height="8.65959" rx="2.64519" transform="translate(491.51475 611.92719) rotate(-179.99999)"/><rect class="cls-1" x="452.27023" y="518.61382" width="5.01085" height="2.62005" rx="0.66186" transform="translate(477.84432 611.92718) rotate(-179.99999)"/><rect class="cls-1" x="465.94066" y="518.61382" width="5.01085" height="2.62005" rx="0.66186" transform="translate(505.18518 611.92719) rotate(-179.99999)"/><rect class="cls-1" x="457.28107" y="524.25363" width="8.65959" height="8.65959" rx="2.64519" transform="translate(491.51474 629.24636) rotate(-179.99999)"/><rect class="cls-1" x="452.27022" y="527.2734" width="5.01085" height="2.62005" rx="0.66186" transform="translate(477.84431 629.24635) rotate(-179.99999)"/><rect class="cls-1" x="465.94066" y="527.27341" width="5.01085" height="2.62005" rx="0.66186" transform="translate(505.18518 629.24636) rotate(-179.99999)"/><rect class="cls-1" x="457.28107" y="532.91322" width="8.65959" height="8.65959" rx="2.64519" transform="translate(491.51474 646.56553) rotate(-179.99999)"/><rect class="cls-1" x="452.27022" y="535.93299" width="5.01085" height="2.62005" rx="0.66186" transform="translate(477.84431 646.56552) rotate(-179.99999)"/><rect class="cls-1" x="465.94065" y="535.93299" width="5.01085" height="2.62005" rx="0.66186" transform="translate(505.18517 646.56553) rotate(-179.99999)"/><path class="cls-1" d="M477.56235,551.1041v12.1024a4.64756,4.64756,0,0,1-4.64756,4.64756h-22.6045a4.64089,4.64089,0,0,1-4.64089-4.64089V551.1041a4.64,4.64,0,0,1,4.64089-4.64089h22.60446A4.64569,4.64569,0,0,1,477.56235,551.1041Z" transform="translate(-431.70685 -427.92061)"/><path class="cls-1" d="M21.27067,139.93345H38.54738a3.54737,3.54737,0,0,1,3.54737,3.54737v9.24852a3.54733,3.54733,0,0,1-3.54733,3.54733H21.27067a3.54737,3.54737,0,0,1-3.54737-3.54737v-9.24848A3.54737,3.54737,0,0,1,21.27067,139.93345Z"/><path class="cls-1" d="M439.52541,572.80713h8.14549a1.756,1.756,0,0,1,1.756,1.756v2.91968a1.756,1.756,0,0,1-1.756,1.756h-8.14549a0,0,0,0,1,0,0v-6.43176A0,0,0,0,1,439.52541,572.80713Z" transform="translate(457.24549 724.1254) rotate(180)"/><path class="cls-1" d="M471.26444,587.00816v7.32147a2.80876,2.80876,0,0,1-2.80723,2.81387H454.76783a2.813,2.813,0,0,1-2.80719-2.81387v-7.32147a2.813,2.813,0,0,1,2.80719-2.81386h13.68938A2.80875,2.80875,0,0,1,471.26444,587.00816Z" transform="translate(-431.70685 -427.92061)"/><path class="cls-1" d="M39.55957,160.20038h6.45209a1.391,1.391,0,0,1,1.391,1.391v2.3127a1.391,1.391,0,0,1-1.391,1.391H39.55957a0,0,0,0,1,0,0v-5.09463A0,0,0,0,1,39.55957,160.20038Z"/><path class="cls-1" d="M468.33719,599.09721v5.1077a1.95787,1.95787,0,0,1-1.95371,1.96038h-9.5352a1.95929,1.95929,0,0,1-1.96039-1.96038v-5.1077a1.95361,1.95361,0,0,1,1.96039-1.95371h9.5352A1.95217,1.95217,0,0,1,468.33719,599.09721Z" transform="translate(-431.70685 -427.92061)"/><path class="cls-1" d="M449.4229,599.87688h4.49555a.96917.96917,0,0,1,.96917.96917v1.61139a.96917.96917,0,0,1-.96917.96917H449.4229a0,0,0,0,1,0,0v-3.54973A0,0,0,0,1,449.4229,599.87688Z" transform="translate(472.60366 775.38288) rotate(180)"/><path class="cls-1" d="M477.8874,460.00387a16.03523,16.03523,0,0,1-.25338,2.84724v18.51032a2.4505,2.4505,0,0,1-4.901,0v-9.48189a16.11216,16.11216,0,0,1-5.50108,3.40069v3.514a2.45048,2.45048,0,1,1-4.90095,0v-2.53382q-.36006.02-.72015.02a16.1533,16.1533,0,0,1-3.28064-.3334v8.64835a2.45047,2.45047,0,0,1-4.90094,0v-10.522a16.16913,16.16913,0,0,1-3.18732-2.42715v5.53441a2.45047,2.45047,0,0,1-4.90094,0V460.00387a15.47507,15.47507,0,0,1,.08-1.5803,16.27174,16.27174,0,0,1,32.46638,1.5803Z" transform="translate(-431.70685 -427.92061)"/><path class="cls-1" d="M490.51823,555.2516v3.81407a2.30046,2.30046,0,0,1-2.30046,2.30046h-1.29359v3.88077a2.61221,2.61221,0,0,1-3.14767,2.55254,2.6544,2.6544,0,0,1-2.0667-2.6265v-3.80681h-4.14747v-8.415h10.65542A2.30046,2.30046,0,0,1,490.51823,555.2516Z" transform="translate(-431.70685 -427.92061)"/><path class="cls-1" d="M445.6694,552.95114v8.415h-1.55365v3.6037a1.29725,1.29725,0,0,1-1.04444,1.30043,1.25349,1.25349,0,0,1-1.46272-1.23674v-3.66739h-2.42048v3.71365a1.71809,1.71809,0,0,1-1.48344,1.73891,1.65378,1.65378,0,0,1-1.82385-1.64513v-3.80743h-.87351a2.30077,2.30077,0,0,1-2.30046-2.30046v-3.82074a2.2938,2.2938,0,0,1,2.29379-2.29379Z" transform="translate(-431.70685 -427.92061)"/><path class="cls-1" d="M451.96064,588.12175v5.0943h-3.92078v5.02768a1.26693,1.26693,0,0,1-2.53382,0v-5.02768a1.38731,1.38731,0,0,1-1.38695-1.39358v-2.31381a1.38586,1.38586,0,0,1,1.38695-1.38691Z" transform="translate(-431.70685 -427.92061)"/><path class="cls-1" d="M483.70353,574.562v2.92058a1.72269,1.72269,0,0,1-.38008,1.08688v7.27479a1.16689,1.16689,0,0,1-1.16689,1.1669h0a1.1669,1.1669,0,0,1-1.1669-1.1669v-6.608h-1.88037v5.29438a.77347.77347,0,1,1-1.54694,0V579.2363H473.8016v-6.4279h8.14158A1.75724,1.75724,0,0,1,483.70353,574.562Z" transform="translate(-431.70685 -427.92061)"/><path class="cls-1" d="M473.80494,600.84422v1.61368a.96753.96753,0,0,1-.96686.96682h-.00668v3.48738a1.18023,1.18023,0,0,1-2.36045,0v-3.48738h-2.13376v-3.54733h4.50089A.96754.96754,0,0,1,473.80494,600.84422Z" transform="translate(-431.70685 -427.92061)"/><path class="cls-1" d="M477.88407,510.20965a16.03523,16.03523,0,0,1-.25339,2.84724V531.5672a2.4505,2.4505,0,0,1-4.901,0v-9.48188a16.11232,16.11232,0,0,1-5.50108,3.40069V529a2.45048,2.45048,0,1,1-4.901,0v-2.53382q-.36.02-.72015.02a16.15384,16.15384,0,0,1-3.28063-.33339v8.64834a2.45048,2.45048,0,0,1-4.901,0v-10.522a16.16911,16.16911,0,0,1-3.18731-2.42716v5.53442a2.45048,2.45048,0,0,1-4.901,0V510.20965a15.47812,15.47812,0,0,1,.08-1.58031,16.27175,16.27175,0,0,1,32.46639,1.58031Z" transform="translate(-431.70685 -427.92061)"/><circle class="cls-2" cx="24.09091" cy="27.22407" r="0.60958"/><circle class="cls-2" cx="38.15308" cy="36.50044" r="0.60958"/><circle class="cls-2" cx="33.90859" cy="23.95151" r="0.60958"/><circle class="cls-2" cx="24.09091" cy="38.41968" r="0.60958"/><circle class="cls-2" cx="31.50953" cy="31.33323" r="0.60958"/><circle class="cls-2" cx="20.65841" cy="32.85668" r="0.60958"/><circle class="cls-2" cx="39.14961" cy="28.44322" r="0.60958"/><circle class="cls-2" cx="26.6376" cy="22.40135" r="0.60958"/><circle class="cls-2" cx="32.68944" cy="38.71495" r="0.60958"/><circle class="cls-2" cx="24.0991" cy="77.51378" r="0.60958"/><circle class="cls-2" cx="38.16127" cy="86.79015" r="0.60958"/><circle class="cls-2" cx="33.91678" cy="74.24123" r="0.60958"/><circle class="cls-2" cx="24.0991" cy="88.7094" r="0.60958"/><circle class="cls-2" cx="31.51772" cy="81.62295" r="0.60958"/><circle class="cls-2" cx="20.6666" cy="83.14639" r="0.60958"/><circle class="cls-2" cx="39.1578" cy="78.73294" r="0.60958"/><circle class="cls-2" cx="26.64579" cy="72.69107" r="0.60958"/><circle class="cls-2" cx="32.69763" cy="89.00467" r="0.60958"/></svg>