<svg id="Livello_1" data-name="Livello 1" xmlns="http://www.w3.org/2000/svg" viewBox="0 0 88.26266 182.04713"><defs><style>.cls-1{fill:#00ff9c;}.cls-1,.cls-2{stroke:#000;stroke-miterlimit:10;stroke-width:2px;}</style></defs><path class="cls-1" d="M226.87438,175.01672a26.043,26.043,0,1,0,26.038,26.04793A26.03789,26.03789,0,0,0,226.87438,175.01672Zm0,47.718a21.67013,21.67013,0,1,1,21.67016-21.6701A21.66854,21.66854,0,0,1,226.87438,222.73475Z" transform="translate(-182.7381 -174.01672)"/><path class="cls-1" d="M250.66878,270.02947v18.05847a6.93481,6.93481,0,0,1-6.93481,6.93481H210.00489A6.92485,6.92485,0,0,1,203.08,288.0979V270.02947a6.92345,6.92345,0,0,1,6.92485-6.92485h33.729A6.932,6.932,0,0,1,250.66878,270.02947Z" transform="translate(-182.7381 -174.01672)"/><path class="cls-1" d="M31.24667,121.006H57.02595a5.29317,5.29317,0,0,1,5.29317,5.29317v13.80009A5.29311,5.29311,0,0,1,57.026,145.3924H31.24667a5.29317,5.29317,0,0,1-5.29317-5.29317v-13.8A5.29317,5.29317,0,0,1,31.24667,121.006Z"/><path class="cls-1" d="M193.91234,302.41342h12.15421a2.62026,2.62026,0,0,1,2.62026,2.62026v4.35657a2.62026,2.62026,0,0,1-2.62026,2.62026H193.91234a0,0,0,0,1,0,0v-9.59709a0,0,0,0,1,0,0Z" transform="translate(219.86104 440.40721) rotate(180)"/><path class="cls-1" d="M241.27142,323.60336V334.528a4.19106,4.19106,0,0,1-4.18879,4.19868H216.65616a4.19742,4.19742,0,0,1-4.18872-4.19868V323.60336a4.19743,4.19743,0,0,1,4.18872-4.19869h20.42647A4.19106,4.19106,0,0,1,241.27142,323.60336Z" transform="translate(-182.7381 -174.01672)"/><path class="cls-1" d="M58.53628,151.24713h9.62742a2.07552,2.07552,0,0,1,2.07552,2.07552v3.45087a2.07552,2.07552,0,0,1-2.07552,2.07552H58.53628a0,0,0,0,1,0,0v-7.60191A0,0,0,0,1,58.53628,151.24713Z"/><path class="cls-1" d="M236.90355,341.64191v7.62139a2.92143,2.92143,0,0,1-2.91522,2.92517H219.76048a2.92354,2.92354,0,0,1-2.92517-2.92517v-7.62139a2.91507,2.91507,0,0,1,2.92517-2.91522h14.22785A2.91292,2.91292,0,0,1,236.90355,341.64191Z" transform="translate(-182.7381 -174.01672)"/><path class="cls-1" d="M208.68077,342.80528h6.708a1.44614,1.44614,0,0,1,1.44614,1.44614v2.40442a1.44614,1.44614,0,0,1-1.44614,1.44614h-6.708a0,0,0,0,1,0,0v-5.2967A0,0,0,0,1,208.68077,342.80528Z" transform="translate(242.77758 516.89054) rotate(180)"/><path class="cls-1" d="M251.15132,218.32711a23.92689,23.92689,0,0,1-.37809,4.24848v27.62a3.65648,3.65648,0,0,1-7.313,0v-14.1483a24.04148,24.04148,0,0,1-8.20838,5.07431V246.365a3.65645,3.65645,0,1,1-7.3129,0v-3.78082q-.53726.02988-1.07457.02988a24.10372,24.10372,0,0,1-4.89517-.49748v12.90454a3.65645,3.65645,0,0,1-7.3129,0V239.32071a24.12707,24.12707,0,0,1-4.75591-3.62166v8.25812a3.65645,3.65645,0,0,1-7.3129,0V218.32711a23.09121,23.09121,0,0,1,.11939-2.358,24.27972,24.27972,0,0,1,48.44439,2.358Z" transform="translate(-182.7381 -174.01672)"/><path class="cls-1" d="M270.00076,276.21812v5.69112a3.43261,3.43261,0,0,1-3.43261,3.43261h-1.93021v5.79065a3.89778,3.89778,0,0,1-4.69677,3.80875,3.96073,3.96073,0,0,1-3.0838-3.9191v-5.6803h-6.1886V272.78552h15.89937A3.43261,3.43261,0,0,1,270.00076,276.21812Z" transform="translate(-182.7381 -174.01672)"/><path class="cls-1" d="M203.08,272.78552v12.55633h-2.31827v5.37723a1.9357,1.9357,0,0,1-1.55846,1.94042,1.87038,1.87038,0,0,1-2.18259-1.84539v-5.47226H193.409v5.54129a2.56362,2.56362,0,0,1-2.2135,2.59469,2.46767,2.46767,0,0,1-2.72144-2.45476v-5.68122h-1.30339a3.43307,3.43307,0,0,1-3.43261-3.43261v-5.70107a3.42265,3.42265,0,0,1,3.42265-3.42265Z" transform="translate(-182.7381 -174.01672)"/><path class="cls-1" d="M212.46744,325.265v7.60141H206.6171v7.502a1.89044,1.89044,0,0,1-3.78082,0v-7.502a2.07006,2.07006,0,0,1-2.06953-2.07942v-3.45253a2.0679,2.0679,0,0,1,2.06953-2.06946Z" transform="translate(-182.7381 -174.01672)"/><path class="cls-1" d="M259.83228,305.032v4.35791a2.57053,2.57053,0,0,1-.56713,1.62178v10.855a1.74117,1.74117,0,0,1-1.74117,1.74118h0a1.74117,1.74117,0,0,1-1.74117-1.74118v-9.86H252.977v7.9a1.15412,1.15412,0,1,1-2.30824,0v-7.9h-5.61156v-9.59133h12.14837A2.622,2.622,0,0,1,259.83228,305.032Z" transform="translate(-182.7381 -174.01672)"/><path class="cls-1" d="M245.0622,344.24869v2.40783a1.44371,1.44371,0,0,1-1.4427,1.44264h-.01v5.20366a1.76106,1.76106,0,0,1-3.52212,0v-5.20366h-3.18387v-5.29311h6.71595A1.44371,1.44371,0,0,1,245.0622,344.24869Z" transform="translate(-182.7381 -174.01672)"/><circle class="cls-2" cx="32.59067" cy="35.4863" r="1.10781"/><circle class="cls-2" cx="58.14649" cy="52.34467" r="1.10781"/><circle class="cls-2" cx="50.43279" cy="29.53894" r="1.10781"/><circle class="cls-2" cx="32.59067" cy="55.8326" r="1.10781"/><circle class="cls-2" cx="46.07287" cy="42.95407" r="1.10781"/><circle class="cls-2" cx="26.35263" cy="45.7227" r="1.10781"/><circle class="cls-2" cx="59.95754" cy="37.70193" r="1.10781"/><circle class="cls-2" cx="37.21889" cy="26.72176" r="1.10781"/><circle class="cls-2" cx="48.21717" cy="56.3692" r="1.10781"/></svg>