<svg id="Livello_1" data-name="Livello 1" xmlns="http://www.w3.org/2000/svg" viewBox="0 0 97.59263 181.03531"><defs><style>.cls-1{fill:#00ff9c;}.cls-1,.cls-2{stroke:#000;stroke-miterlimit:10;stroke-width:2px;}</style></defs><path class="cls-1" d="M225.79814,316.224v20.01163a7.68486,7.68486,0,0,1-7.68487,7.68486H180.73613a7.67383,7.67383,0,0,1-7.67382-7.67383V316.224a7.67229,7.67229,0,0,1,7.67382-7.67383H218.1132A7.68178,7.68178,0,0,1,225.79814,316.224Z" transform="translate(-150.62839 -230.42019)"/><path class="cls-1" d="M219.57964,349.78616v15.29261a5.88292,5.88292,0,0,1-5.86567,5.86567H185.1464a5.8656,5.8656,0,0,1-5.8656-5.86561V349.78616a5.86567,5.86567,0,0,1,5.86567-5.86567H213.714A5.87014,5.87014,0,0,1,219.57964,349.78616Z" transform="translate(-150.62839 -230.42019)"/><path class="cls-1" d="M162.90305,352.11052h13.46878a2.90366,2.90366,0,0,1,2.90366,2.90366V359.842a2.90366,2.90366,0,0,1-2.90366,2.90366H162.90305a0,0,0,0,1,0,0V352.11052A0,0,0,0,1,162.90305,352.11052Z" transform="translate(191.55015 484.43595) rotate(180)"/><path class="cls-1" d="M215.38438,375.59231v12.10624a4.64436,4.64436,0,0,1-4.64184,4.6528H188.1068a4.65141,4.65141,0,0,1-4.64177-4.6528V375.59231a4.65141,4.65141,0,0,1,4.64177-4.6528h22.63574A4.64436,4.64436,0,0,1,215.38438,375.59231Z" transform="translate(-150.62839 -230.42019)"/><path class="cls-1" d="M64.75926,147.01222H75.428a2.3,2.3,0,0,1,2.3,2.3v3.8241a2.3,2.3,0,0,1-2.3,2.3H64.75926a0,0,0,0,1,0,0v-8.42411A0,0,0,0,1,64.75926,147.01222Z"/><path class="cls-1" d="M210.54409,395.58187v8.4457a3.23739,3.23739,0,0,1-3.23052,3.24155h-15.7667a3.23974,3.23974,0,0,1-3.24155-3.24155v-8.4457a3.23035,3.23035,0,0,1,3.24155-3.23052h15.7667A3.228,3.228,0,0,1,210.54409,395.58187Z" transform="translate(-150.62839 -230.42019)"/><path class="cls-1" d="M179.26881,396.87107h7.43351a1.60255,1.60255,0,0,1,1.60255,1.60255v2.66448a1.60255,1.60255,0,0,1-1.60255,1.60255h-7.43351a0,0,0,0,1,0,0v-5.86958a0,0,0,0,1,0,0Z" transform="translate(216.94529 569.19152) rotate(180)"/><path class="cls-1" d="M172.51654,276.12929a26.51485,26.51485,0,0,1,.419-4.708V240.814a4.052,4.052,0,0,1,8.10391,0v15.67854a26.64212,26.64212,0,0,1,9.09619-5.62313v-5.81049a4.05192,4.05192,0,1,1,8.10384,0v4.18975q.59536-.03312,1.19079-.03311a26.71045,26.71045,0,0,1,5.42462.55128V235.46659a4.05192,4.05192,0,0,1,8.10384,0v17.39848a26.73584,26.73584,0,0,1,5.27031,4.01337v-9.1513a4.05193,4.05193,0,0,1,8.10385,0v28.40215a25.58926,25.58926,0,0,1-.13231,2.61308,26.90576,26.90576,0,0,1-53.684-2.61308Z" transform="translate(-150.62839 -230.42019)"/><path class="cls-1" d="M247.221,323.082v6.30666a3.80387,3.80387,0,0,1-3.80387,3.80387h-2.139v6.417a4.31936,4.31936,0,0,1-5.20476,4.2207,4.38911,4.38911,0,0,1-3.41733-4.343v-6.29466h-6.85793v-13.9144h17.619A3.80387,3.80387,0,0,1,247.221,323.082Z" transform="translate(-150.62839 -230.42019)"/><path class="cls-1" d="M173.06231,319.27813v13.9144h-2.569v5.95881a2.145,2.145,0,0,1-1.727,2.1503,2.07268,2.07268,0,0,1-2.41865-2.045v-6.06412h-4.00233v6.14063a2.84089,2.84089,0,0,1-2.45291,2.87532,2.73457,2.73457,0,0,1-3.01579-2.72026v-6.29569h-1.44436a3.80438,3.80438,0,0,1-3.80387-3.80387V323.071a3.79283,3.79283,0,0,1,3.79283-3.79284Z" transform="translate(-150.62839 -230.42019)"/><path class="cls-1" d="M183.465,377.43365v8.42356h-6.4831v8.31341a2.0949,2.0949,0,0,1-4.18975,0v-8.31341a2.294,2.294,0,0,1-2.29336-2.30433v-3.82594a2.29156,2.29156,0,0,1,2.29336-2.29329Z" transform="translate(-150.62839 -230.42019)"/><path class="cls-1" d="M235.95274,355.01232v4.82925a2.8486,2.8486,0,0,1-.62847,1.79719v12.029a1.9295,1.9295,0,0,1-1.92949,1.9295h0a1.9295,1.9295,0,0,1-1.92949-1.9295V362.74133H228.356v8.75439a1.27895,1.27895,0,1,1-2.55789,0v-8.75439h-6.2185v-10.6287H233.042A2.90564,2.90564,0,0,1,235.95274,355.01232Z" transform="translate(-150.62839 -230.42019)"/><path class="cls-1" d="M219.58516,398.47059v2.66826a1.59986,1.59986,0,0,1-1.59874,1.59867h-.011V408.504a1.95153,1.95153,0,0,1-3.90306,0v-5.76647h-3.52823v-5.8656h7.44233A1.59986,1.59986,0,0,1,219.58516,398.47059Z" transform="translate(-150.62839 -230.42019)"/><circle class="cls-2" cx="61.58519" cy="55.48758" r="1.22763"/><circle class="cls-2" cx="33.26531" cy="36.80586" r="1.22763"/><circle class="cls-2" cx="41.8133" cy="62.07819" r="1.22763"/><circle class="cls-2" cx="61.58519" cy="32.94068" r="1.22763"/><circle class="cls-2" cx="46.64478" cy="47.21211" r="1.22763"/><circle class="cls-2" cx="68.49792" cy="44.14404" r="1.22763"/><circle class="cls-2" cx="31.25839" cy="53.03232" r="1.22763"/><circle class="cls-2" cx="56.45639" cy="65.20007" r="1.22763"/><circle class="cls-2" cx="44.26857" cy="32.34603" r="1.22763"/></svg>