<svg id="Livello_1" data-name="Livello 1" xmlns="http://www.w3.org/2000/svg" viewBox="0 0 73.2579 181.32002"><defs><style>.cls-1{fill:#00ff9c;}.cls-1,.cls-2,.cls-3{stroke:#000;stroke-miterlimit:10;stroke-width:2px;}.cls-2{fill:none;}</style></defs><circle class="cls-1" cx="38.11317" cy="6.72021" r="4.20783"/><path class="cls-2" d="M135.37347,312.60329c0-1.51715,2.6851-2.74482,6.00338-2.74482" transform="translate(-94.28491 -308.85847)"/><path class="cls-1" d="M164.67007,387.26381c-.38907,43.54152-11.03622,79.67719-25.25434,89.17225H124.53322c-14.21811-9.49764-24.86527-45.63083-25.25434-89.17225a2.45514,2.45514,0,0,1,2.45784-2.46981h60.47551A2.45514,2.45514,0,0,1,164.67007,387.26381Z" transform="translate(-94.28491 -308.85847)"/><path class="cls-1" d="M142.69992,478.87753a2.44248,2.44248,0,0,1-2.44149,2.44148H123.69051a2.44148,2.44148,0,0,1,0-4.88295h16.56792A2.4419,2.4419,0,0,1,142.69992,478.87753Z" transform="translate(-94.28491 -308.85847)"/><path class="cls-1" d="M27.49656,172.46053h20.386A7.85948,7.85948,0,0,1,55.742,180.32v0a0,0,0,0,1,0,0h-36.105a0,0,0,0,1,0,0v0A7.85948,7.85948,0,0,1,27.49656,172.46053Z"/><path class="cls-1" d="M8.89413,76.27908h7.60739a0,0,0,0,1,0,0V88.031a3.80369,3.80369,0,0,1-3.80369,3.80369h0A3.80369,3.80369,0,0,1,8.89413,88.031v-11.752A0,0,0,0,1,8.89413,76.27908Z"/><path class="cls-1" d="M20.34136,76.27908h7.60739a0,0,0,0,1,0,0V95.67631A3.80369,3.80369,0,0,1,24.14505,99.48h0a3.80369,3.80369,0,0,1-3.80369-3.80369V76.27908A0,0,0,0,1,20.34136,76.27908Z"/><path class="cls-1" d="M31.04433,76.27908h7.60739a0,0,0,0,1,0,0v7.41128A3.80369,3.80369,0,0,1,34.848,87.49405h0a3.80369,3.80369,0,0,1-3.80369-3.80369V76.27908a0,0,0,0,1,0,0Z"/><path class="cls-1" d="M44.85617,76.27908h7.60739a0,0,0,0,1,0,0v30.02659a3.80369,3.80369,0,0,1-3.80369,3.80369h0a3.80369,3.80369,0,0,1-3.80369-3.80369V76.27908A0,0,0,0,1,44.85617,76.27908Z"/><path class="cls-1" d="M58.38755,76.1073h7.60739a0,0,0,0,1,0,0v7.75484a3.80369,3.80369,0,0,1-3.80369,3.80369h0a3.80369,3.80369,0,0,1-3.80369-3.80369V76.1073A0,0,0,0,1,58.38755,76.1073Z"/><path class="cls-1" d="M37.68954,40.26027h0A22.84484,22.84484,0,0,1,60.53442,63.1051V75.93552a0,0,0,0,1,0,0H14.8447a0,0,0,0,1,0,0V63.1051A22.84484,22.84484,0,0,1,37.68954,40.26027Z"/><circle class="cls-1" cx="27.94874" cy="54.57815" r="5.46958"/><circle class="cls-3" cx="27.94874" cy="54.57815" r="2.14812"/><circle class="cls-1" cx="37.80104" cy="62.78251" r="2.73479"/><circle class="cls-1" cx="47.65333" cy="54.57815" r="5.46958"/><rect class="cls-1" x="128.25394" y="334.66864" width="7.44106" height="7.44106" rx="2.27298" transform="translate(169.66396 367.91991) rotate(-179.99999)"/><rect class="cls-1" x="123.94819" y="337.26349" width="4.30575" height="2.25137" rx="0.56873" transform="translate(157.91714 367.91991) rotate(-179.99999)"/><rect class="cls-1" x="135.69501" y="337.26349" width="4.30575" height="2.25137" rx="0.56873" transform="translate(181.41077 367.91992) rotate(-179.99999)"/><rect class="cls-1" x="128.25394" y="342.10971" width="7.44106" height="7.44106" rx="2.27298" transform="translate(169.66395 382.80204) rotate(-179.99999)"/><rect class="cls-1" x="123.94819" y="344.70455" width="4.30575" height="2.25137" rx="0.56873" transform="translate(157.91713 382.80204) rotate(-179.99999)"/><rect class="cls-1" x="135.69501" y="344.70456" width="4.30575" height="2.25137" rx="0.56873" transform="translate(181.41077 382.80204) rotate(-179.99999)"/><rect class="cls-1" x="128.25395" y="319.78651" width="7.44106" height="7.44106" rx="2.27298" transform="translate(169.66397 338.15565) rotate(-179.99999)"/><rect class="cls-1" x="123.9482" y="322.38136" width="4.30575" height="2.25137" rx="0.56873" transform="translate(157.91715 338.15565) rotate(-179.99999)"/><rect class="cls-1" x="135.69501" y="322.38136" width="4.30575" height="2.25137" rx="0.56873" transform="translate(181.41078 338.15566) rotate(-179.99999)"/><rect class="cls-1" x="128.25395" y="327.22758" width="7.44106" height="7.44106" rx="2.27298" transform="translate(169.66396 353.03778) rotate(-179.99999)"/><rect class="cls-1" x="123.94819" y="329.82242" width="4.30575" height="2.25137" rx="0.56873" transform="translate(157.91714 353.03778) rotate(-179.99999)"/><rect class="cls-1" x="135.69501" y="329.82243" width="4.30575" height="2.25137" rx="0.56873" transform="translate(181.41078 353.03779) rotate(-179.99999)"/><circle class="cls-3" cx="47.65333" cy="54.57815" r="2.14812"/><circle class="cls-1" cx="11.06665" cy="65.5173" r="10.06665"/><circle class="cls-1" cx="58.55703" cy="63.15871" r="13.70086"/></svg>