<svg id="Livello_1" data-name="Livello 1" xmlns="http://www.w3.org/2000/svg" viewBox="0 0 72.78452 181.52864"><defs><style>.cls-1{fill:#00ff9c;}.cls-1,.cls-2{stroke:#000;stroke-miterlimit:10;stroke-width:2px;}.cls-2{fill:none;}</style></defs><path class="cls-1" d="M261.02946,347.43779h2.48976a.89005.89005,0,0,1,.89005.89005V369.515a0,0,0,0,1,0,0h-4.26986a0,0,0,0,1,0,0V348.32784A.89005.89005,0,0,1,261.02946,347.43779Z" transform="translate(-370.94694 -196.15369) rotate(-23.45714)"/><path class="cls-1" d="M264.14843,334.34131h1.62479a1.32254,1.32254,0,0,1,1.32254,1.32254v26.93294a0,0,0,0,1,0,0h-4.26986a0,0,0,0,1,0,0V335.66384a1.32254,1.32254,0,0,1,1.32254-1.32254Z" transform="translate(-366.74136 -195.91133) rotate(-23.45714)"/><line class="cls-2" x1="10.53233" y1="18.74655" x2="8.63859" y2="25.53229"/><line class="cls-2" x1="12.39412" y1="23.03714" x2="10.77958" y2="30.04294"/><line class="cls-2" x1="14.35274" y1="27.55088" x2="12.83683" y2="34.78398"/><line class="cls-2" x1="15.03521" y1="12.59524" x2="13.41296" y2="19.44953"/><line class="cls-2" x1="17.53954" y1="18.69655" x2="15.73373" y2="25.26155"/><line class="cls-2" x1="20.17643" y1="24.35753" x2="18.19403" y2="30.40792"/><line class="cls-2" x1="12.49359" y1="7.06787" x2="10.73548" y2="13.74279"/><path class="cls-1" d="M284.808,338.85046h2.48976a.89005.89005,0,0,1,.89005.89005V360.9277a0,0,0,0,1,0,0h-4.26986a0,0,0,0,1,0,0V339.74051A.89005.89005,0,0,1,284.808,338.85046Z" transform="translate(-101.4646 -410.7762) rotate(21.54286)"/><path class="cls-1" d="M294.21638,330.5847h1.62479a1.32254,1.32254,0,0,1,1.32254,1.32254v26.93294a0,0,0,0,1,0,0h-4.26986a0,0,0,0,1,0,0V331.90723a1.32254,1.32254,0,0,1,1.32254-1.32254Z" transform="translate(-102.73842 -414.43375) rotate(21.54286)"/><line class="cls-2" x1="41.59525" y1="11.67175" x2="35.45792" y2="15.13092"/><line class="cls-2" x1="39.87782" y1="16.02214" x2="33.78232" y2="19.83434"/><line class="cls-2" x1="38.07108" y1="20.59879" x2="31.88459" y2="24.64146"/><line class="cls-2" x1="49.1289" y1="10.50614" x2="43.13508" y2="14.20575"/><line class="cls-2" x1="46.58545" y1="16.59124" x2="40.66639" y2="19.9565"/><line class="cls-2" x1="44.44709" y1="22.45873" x2="38.76705" y2="25.33523"/><line class="cls-2" x1="51.24014" y1="4.8005" x2="45.27708" y2="8.27721"/><circle class="cls-1" cx="32.56882" cy="51.52214" r="25.09584"/><circle class="cls-1" cx="32.56882" cy="49.87062" r="14.76323"/><circle class="cls-1" cx="33.48458" cy="50.45998" r="8.51911"/><path class="cls-1" d="M316.02005,409.25714c-.3873,43.34387-10.98612,79.31551-25.13969,88.76746h-14.815c-14.15357-9.45452-24.75239-45.42368-25.13969-88.76746a2.444,2.444,0,0,1,2.44668-2.4586h60.201A2.444,2.444,0,0,1,316.02005,409.25714Z" transform="translate(-249.92561 -330.18056)"/><path class="cls-1" d="M294.14963,500.455a2.43138,2.43138,0,0,1-2.4304,2.4304H275.22652a2.4304,2.4304,0,0,1,0-4.86079h16.49271A2.43082,2.43082,0,0,1,294.14963,500.455Z" transform="translate(-249.92561 -330.18056)"/><path class="cls-1" d="M23.40054,172.70482H43.694a7.82381,7.82381,0,0,1,7.82381,7.82381v0a0,0,0,0,1,0,0H15.57674a0,0,0,0,1,0,0v0A7.82381,7.82381,0,0,1,23.40054,172.70482Z"/><path class="cls-1" d="M4.88256,76.96h7.57285a0,0,0,0,1,0,0V88.65859A3.78642,3.78642,0,0,1,8.669,92.445h0a3.78642,3.78642,0,0,1-3.78642-3.78642V76.96A0,0,0,0,1,4.88256,76.96Z"/><path class="cls-1" d="M16.27782,76.96h7.57285a0,0,0,0,1,0,0V96.26915a3.78642,3.78642,0,0,1-3.78642,3.78642h0a3.78642,3.78642,0,0,1-3.78642-3.78642V76.96A0,0,0,0,1,16.27782,76.96Z"/><path class="cls-1" d="M26.9322,76.96h7.57285a0,0,0,0,1,0,0v7.37764A3.78642,3.78642,0,0,1,30.71863,88.124h0a3.78642,3.78642,0,0,1-3.78642-3.78642V76.96A0,0,0,0,1,26.9322,76.96Z"/><path class="cls-1" d="M40.68135,76.96H48.2542a0,0,0,0,1,0,0v29.89029a3.78642,3.78642,0,0,1-3.78642,3.78642h0a3.78642,3.78642,0,0,1-3.78642-3.78642V76.96A0,0,0,0,1,40.68135,76.96Z"/><path class="cls-1" d="M54.1513,76.789h7.57285a0,0,0,0,1,0,0v7.71964A3.78642,3.78642,0,0,1,57.93773,88.295h0a3.78642,3.78642,0,0,1-3.78642-3.78642V76.789A0,0,0,0,1,54.1513,76.789Z"/><circle class="cls-1" cx="17.37769" cy="60.24029" r="16.37769"/><circle class="cls-1" cx="49.83091" cy="54.66437" r="21.95361"/><circle class="cls-1" cx="17.37769" cy="60.16741" r="10.2968"/><circle class="cls-1" cx="17.37769" cy="60.16741" r="5.94176"/><circle class="cls-1" cx="49.83091" cy="54.66437" r="15.57769"/><circle class="cls-1" cx="49.83091" cy="54.66437" r="8.9891"/></svg>