<svg id="Livello_1" data-name="Livello 1" xmlns="http://www.w3.org/2000/svg" viewBox="0 0 77.95521 181.03531"><defs><style>.cls-1{fill:#00ff9c;}.cls-1,.cls-2,.cls-3{stroke:#000;stroke-miterlimit:10;stroke-width:2px;}.cls-3{fill:none;}</style></defs><rect class="cls-1" x="6.37227" y="39.6264" width="13.1415" height="2.31264"/><rect class="cls-1" x="305.2406" y="366.84764" width="6.75526" height="2.31264" transform="translate(46.61225 -440.8674) rotate(45)"/><rect class="cls-1" x="305.32331" y="373.30048" width="6.87084" height="2.31264" transform="translate(487.86703 90.48511) rotate(135)"/><path class="cls-1" d="M318.45018,345.73519h2.88169a1.03016,1.03016,0,0,1,1.03016,1.03016v24.52244a0,0,0,0,1,0,0H317.42a0,0,0,0,1,0,0V346.76535a1.03016,1.03016,0,0,1,1.03016-1.03016Z" transform="translate(-420.27177 -173.46238) rotate(-23.45714)"/><path class="cls-1" d="M322.06013,330.57707h1.88056a1.53073,1.53073,0,0,1,1.53073,1.53073v31.17269a0,0,0,0,1,0,0h-4.942a0,0,0,0,1,0,0V332.1078A1.53073,1.53073,0,0,1,322.06013,330.57707Z" transform="translate(-415.40416 -173.18187) rotate(-23.45714)"/><path class="cls-1" d="M362.29273,364.94555a14.74624,14.74624,0,0,0-10.46015-4.33664H334.73307a14.79063,14.79063,0,0,0-14.78952,14.79679H366.6221A14.75745,14.75745,0,0,0,362.29273,364.94555Zm-29.2231,7.46738a4.11507,4.11507,0,1,1,4.11141-4.11868A4.12,4.12,0,0,1,333.06963,372.41293Z" transform="translate(-303.99803 -330.42723)"/><path class="cls-1" d="M380.95312,393.04c-.44827,50.167-12.71554,91.80125-29.09715,102.74112h-17.1471C318.32726,484.83831,306.06,443.20692,305.61171,393.04a2.82873,2.82873,0,0,1,2.83184-2.84563h69.67774A2.82871,2.82871,0,0,1,380.95312,393.04Z" transform="translate(-303.99803 -330.42723)"/><path class="cls-1" d="M355.63989,498.59413a2.81411,2.81411,0,0,1-2.813,2.813h-19.089a2.813,2.813,0,0,1,0-5.626h19.089A2.81346,2.81346,0,0,1,355.63989,498.59413Z" transform="translate(-303.99803 -330.42723)"/><path class="cls-1" d="M27.54038,170.97988h23.488a9.05542,9.05542,0,0,1,9.05542,9.05542v0a0,0,0,0,1,0,0H18.485a0,0,0,0,1,0,0v0A9.05542,9.05542,0,0,1,27.54038,170.97988Z"/><path class="cls-1" d="M374.09675,386.1492v4.046H312.4689v-4.046a10.74188,10.74188,0,0,1,10.74346-10.7435h40.14093A10.74188,10.74188,0,0,1,374.09675,386.1492Z" transform="translate(-303.99803 -330.42723)"/><path class="cls-1" d="M337.181,368.29425a4.115,4.115,0,1,1-4.11141-4.11145A4.11848,4.11848,0,0,1,337.181,368.29425Z" transform="translate(-303.99803 -330.42723)"/><path class="cls-1" d="M337.181,368.29425a4.115,4.115,0,1,1-4.11141-4.11145A4.11848,4.11848,0,0,1,337.181,368.29425Z" transform="translate(-303.99803 -330.42723)"/><circle class="cls-1" cx="39.39433" cy="25.25827" r="4.84812"/><line class="cls-1" x1="36.17442" y1="44.58346" x2="45.56466" y2="30.18169"/><line class="cls-1" x1="48.40168" y1="45.07152" x2="56.35006" y2="32.88114"/><line class="cls-1" x1="11.86983" y1="59.27911" x2="21.26007" y2="44.87734"/><line class="cls-1" x1="24.0971" y1="59.76717" x2="33.73962" y2="44.97847"/><line class="cls-1" x1="36.24939" y1="59.76717" x2="45.89192" y2="44.97847"/><line class="cls-1" x1="48.60916" y1="59.47257" x2="58.25169" y2="44.68387"/><line class="cls-1" x1="59.16758" y1="60.13523" x2="67.09619" y2="47.97517"/><circle class="cls-2" cx="28.91836" cy="37.38257" r="0.85699"/><path class="cls-3" d="M346.82049,352.25736c0-1.748,3.09368-3.16248,6.91688-3.16248" transform="translate(-303.99803 -330.42723)"/><path class="cls-1" d="M6.10732,60.163h8.765a0,0,0,0,1,0,0V73.7032a4.38248,4.38248,0,0,1-4.38248,4.38248h0A4.38248,4.38248,0,0,1,6.10732,73.7032V60.163a0,0,0,0,1,0,0Z"/><path class="cls-1" d="M19.2964,60.163h8.765a0,0,0,0,1,0,0v22.3488a4.38248,4.38248,0,0,1-4.38248,4.38248h0a4.38248,4.38248,0,0,1-4.38248-4.38248V60.163A0,0,0,0,1,19.2964,60.163Z"/><path class="cls-1" d="M31.628,60.163h8.765a0,0,0,0,1,0,0v8.539a4.38248,4.38248,0,0,1-4.38248,4.38248h0A4.38248,4.38248,0,0,1,31.628,68.702V60.163A0,0,0,0,1,31.628,60.163Z"/><path class="cls-1" d="M47.54151,60.163h8.765a0,0,0,0,1,0,0V94.75859A4.38248,4.38248,0,0,1,51.924,99.14106h0a4.38248,4.38248,0,0,1-4.38248-4.38248V60.163A0,0,0,0,1,47.54151,60.163Z"/><path class="cls-1" d="M63.13188,59.96509h8.765a0,0,0,0,1,0,0v8.93485a4.38248,4.38248,0,0,1-4.38248,4.38248h0a4.38248,4.38248,0,0,1-4.38248-4.38248V59.96509A0,0,0,0,1,63.13188,59.96509Z"/><line class="cls-3" x1="13.79066" y1="17.03173" x2="11.5988" y2="24.88567"/><line class="cls-3" x1="15.94553" y1="21.99774" x2="14.07683" y2="30.10639"/><line class="cls-3" x1="18.21247" y1="27.22203" x2="16.45793" y2="35.59376"/><line class="cls-3" x1="16.06066" y1="3.51461" x2="14.02578" y2="11.24029"/><line class="cls-3" x1="19.00238" y1="9.91209" x2="17.12475" y2="17.84537"/><line class="cls-3" x1="21.90094" y1="16.97386" x2="19.81086" y2="24.57232"/><line class="cls-3" x1="24.95292" y1="23.52599" x2="22.65846" y2="30.52882"/></svg>