<svg id="Livello_1" data-name="Livello 1" xmlns="http://www.w3.org/2000/svg" viewBox="0 0 221.03585 181.89321"><defs><style>.cls-1{fill:#00ff9c;}.cls-1,.cls-2{stroke:#000;stroke-miterlimit:10;stroke-width:2px;}</style></defs><path class="cls-1" d="M278.04317,289.93376a17.15467,17.15467,0,0,1,.27108-3.046V267.08505a2.62159,2.62159,0,0,1,5.24317,0V277.229a17.23725,17.23725,0,0,1,5.88515-3.63813v-3.75933a2.62157,2.62157,0,1,1,5.24313,0v2.71073q.38519-.02142.77043-.02142a17.28181,17.28181,0,0,1,3.50968.35667v-9.25216a2.62157,2.62157,0,0,1,5.24313,0V274.882a17.298,17.298,0,0,1,3.40984,2.59661v-5.92081a2.62157,2.62157,0,0,1,5.24313,0v18.376a16.55734,16.55734,0,0,1-.0856,1.69064,17.40782,17.40782,0,0,1-34.73314-1.69064Z" transform="translate(-166.72972 -260.00732)"/><circle class="cls-2" cx="136.99712" cy="36.25303" r="0.79427"/><circle class="cls-2" cx="118.67438" cy="24.16611" r="0.79427"/><circle class="cls-2" cx="124.20486" cy="40.51711" r="0.79427"/><circle class="cls-2" cx="136.99712" cy="21.66536" r="0.79427"/><circle class="cls-2" cx="127.33079" cy="30.89887" r="0.79427"/><circle class="cls-2" cx="141.4696" cy="28.91385" r="0.79427"/><circle class="cls-2" cx="117.37591" cy="34.6645" r="0.79427"/><circle class="cls-2" cx="133.67882" cy="42.53694" r="0.79427"/><circle class="cls-2" cx="125.7934" cy="21.28064" r="0.79427"/><path class="cls-1" d="M236.60952,296.54491a13.33594,13.33594,0,0,1,.21074-2.368V278.78251a2.038,2.038,0,0,1,4.076,0v7.88579a13.4,13.4,0,0,1,4.57508-2.82825v-2.92248a2.038,2.038,0,1,1,4.076,0v2.1073q.29944-.01665.59893-.01665a13.43513,13.43513,0,0,1,2.7284.27727v-7.19255a2.038,2.038,0,0,1,4.076,0v8.75085a13.44743,13.44743,0,0,1,2.65079,2.01859v-4.6028a2.038,2.038,0,0,1,4.076,0v14.28533a12.87264,12.87264,0,0,1-.06654,1.3143,13.5327,13.5327,0,0,1-27.00127-1.3143Z" transform="translate(-166.72972 -260.00732)"/><circle class="cls-2" cx="89.84608" cy="41.45584" r="0.61746"/><circle class="cls-2" cx="75.60213" cy="32.05956" r="0.61746"/><circle class="cls-2" cx="79.90148" cy="44.7707" r="0.61746"/><circle class="cls-2" cx="89.84608" cy="30.1155" r="0.61746"/><circle class="cls-2" cx="82.33155" cy="37.29356" r="0.61746"/><circle class="cls-2" cx="93.32295" cy="35.75042" r="0.61746"/><circle class="cls-2" cx="74.59271" cy="40.22092" r="0.61746"/><circle class="cls-2" cx="87.26647" cy="46.3409" r="0.61746"/><circle class="cls-2" cx="81.1364" cy="29.81642" r="0.61746"/><path class="cls-1" d="M358.08031,377.33691a6.7123,6.7123,0,0,1-6.55,6.73h-135.55a1.62739,1.62739,0,0,0-.22.01h-21.72a6.74,6.74,0,1,1,0-13.48h112.37v.01h9.39v-.01h35.56A6.7324,6.7324,0,0,1,358.08031,377.33691Z" transform="translate(-166.72972 -260.00732)"/><path class="cls-1" d="M351.53032,384.067a.97484.97484,0,0,1-.17.01h-135.6a1.62739,1.62739,0,0,1,.22-.01Z" transform="translate(-166.72972 -260.00732)"/><path class="cls-1" d="M360.1292,363.8576a6.74781,6.74781,0,0,1-6.72426,6.73932H196.08165a6.73938,6.73938,0,1,1,0-13.47874H308.45544a4.73974,4.73974,0,0,0,9.38974,0h35.55976A6.73164,6.73164,0,0,1,360.1292,363.8576Z" transform="translate(-166.72972 -260.00732)"/><path class="cls-1" d="M308.45544,357.11818h-119.931v2.69571a3.35132,3.35132,0,0,1-3.36217,3.347h-.36346a3.348,3.348,0,0,1-3.34693-3.347v-4.18a6.7258,6.7258,0,0,1-.54528-10.02579c.16667-.16657.36355-.33314.54528-.48455a6.60215,6.60215,0,0,1,3.877-1.46908,2.45059,2.45059,0,0,1,.33314-.01516H204.7747v4.64944a4.75546,4.75546,0,0,0,9.51092,0v-4.64944H308.3949v12.81246A3.207,3.207,0,0,0,308.45544,357.11818Z" transform="translate(-166.72972 -260.00732)"/><path class="cls-1" d="M349.7206,350.38379a6.74778,6.74778,0,0,1-6.73942,6.73942H317.841a3.21313,3.21313,0,0,0,.06055-.66638V343.64437h9.51092v4.37685a4.40156,4.40156,0,0,0,4.40707,4.40707h.69669a4.40156,4.40156,0,0,0,4.40708-4.40707v-4.37685h6.05788A6.74458,6.74458,0,0,1,349.7206,350.38379Z" transform="translate(-166.72972 -260.00732)"/><path class="cls-1" d="M375.57264,336.905a6.71882,6.71882,0,0,1-1.984,4.77062,5.96245,5.96245,0,0,1-1.30242.99951v10.16214a4.75547,4.75547,0,0,1-9.51093,0v-9.19286h-25.852V329.80208a4.75546,4.75546,0,0,0,9.51092,0v.36355h22.399A6.75432,6.75432,0,0,1,375.57264,336.905Z" transform="translate(-166.72972 -260.00732)"/><path class="cls-1" d="M227.90071,343.63935H214.28562V334.0982a3.61953,3.61953,0,0,0,3.61961,3.6196h2.27171a3.61951,3.61951,0,0,0,3.61952-3.6196v5.45206A4.09459,4.09459,0,0,0,227.90071,343.63935Z" transform="translate(-166.72972 -260.00732)"/><path class="cls-1" d="M308.3949,330.16061v13.47874H229.21829a4.09133,4.09133,0,0,0,4.08909-4.08909v-9.38965Z" transform="translate(-166.72972 -260.00732)"/><path class="cls-1" d="M327.41665,336.49109v7.14826h-9.51092v-7.14826a3.82636,3.82636,0,0,0,3.83166,3.83156H323.585A3.82636,3.82636,0,0,0,327.41665,336.49109Z" transform="translate(-166.72972 -260.00732)"/><path class="cls-1" d="M204.7747,316.69693v13.46368h-7.16342a6.73185,6.73185,0,1,1,0-13.46368Z" transform="translate(-166.72972 -260.00732)"/><rect class="cls-1" x="66.57766" y="56.68962" width="75.08752" height="13.46367"/><path class="cls-1" d="M361.65464,323.44138a6.72206,6.72206,0,0,1-6.73942,6.72425h-8.481V316.702h8.481A6.73487,6.73487,0,0,1,361.65464,323.44138Z" transform="translate(-166.72972 -260.00732)"/><path class="cls-1" d="M214.28562,316.69693v31.59186a4.75546,4.75546,0,0,1-9.51092,0V316.69693Z" transform="translate(-166.72972 -260.00732)"/><path class="cls-1" d="M223.79646,316.69693v16.26551a4.75536,4.75536,0,0,1-4.75537,4.75536h0a4.75546,4.75546,0,0,1-4.75546-4.75545V316.69693Z" transform="translate(-166.72972 -260.00732)"/><path class="cls-1" d="M233.30738,316.69693v22.85333a4.09133,4.09133,0,0,1-4.08909,4.08909h-1.31758a4.09459,4.09459,0,0,1-4.10425-4.08909V316.69693Z" transform="translate(-166.72972 -260.00732)"/><path class="cls-1" d="M327.41665,316.69693v18.87026a4.75546,4.75546,0,0,1-4.75545,4.75546h0a4.75546,4.75546,0,0,1-4.75546-4.75546V316.69693Z" transform="translate(-166.72972 -260.00732)"/><path class="cls-1" d="M336.92749,316.69693v31.31926a4.40155,4.40155,0,0,1-4.40707,4.40707h-.69669a4.40156,4.40156,0,0,1-4.40708-4.40707V316.69693Z" transform="translate(-166.72972 -260.00732)"/><path class="cls-1" d="M317.90573,316.69693v39.75488a3.2131,3.2131,0,0,1-.06055.66637,4.73974,4.73974,0,0,1-9.38974,0,3.207,3.207,0,0,1-.06054-.66637V316.69693Z" transform="translate(-166.72972 -260.00732)"/><path class="cls-1" d="M346.43422,316.702v13.10012a4.75546,4.75546,0,0,1-9.51092,0V316.702Z" transform="translate(-166.72972 -260.00732)"/><path class="cls-1" d="M346.43422,316.702v13.10012a4.75546,4.75546,0,0,1-9.51092,0V316.702Z" transform="translate(-166.72972 -260.00732)"/><path class="cls-1" d="M1,162.05552H220.03585a0,0,0,0,1,0,0v0a18.83767,18.83767,0,0,1-18.83767,18.83767H19.83767A18.83767,18.83767,0,0,1,1,162.05554v0a0,0,0,0,1,0,0Z"/><line class="cls-1" x1="3.83829" y1="171.47436" x2="217.19135" y2="171.47436"/><rect class="cls-1" x="29.60671" y="149.39237" width="161.81621" height="12.66314" rx="6.33157"/><path class="cls-1" d="M339.75164,403.07a6.33339,6.33339,0,0,1-6.33,6.33h-139.08V412a4.755,4.755,0,0,1-9.51,0v-2.6h-.57a6.33,6.33,0,0,1,0-12.66h149.16A6.33127,6.33127,0,0,1,339.75164,403.07Z" transform="translate(-166.72972 -260.00732)"/><path class="cls-1" d="M371.46031,390.39691a6.33157,6.33157,0,0,1-5.06,6.21v7.16a4.755,4.755,0,0,1-9.51,0v-7.03h-140.91a6.33187,6.33187,0,0,1-.22-12.66,1.62739,1.62739,0,0,1,.22-.01h149.15a5.95113,5.95113,0,0,1,1.26995.13A6.32094,6.32094,0,0,1,371.46031,390.39691Z" transform="translate(-166.72972 -260.00732)"/><path class="cls-1" d="M129.71739,124.06608h9.51092a0,0,0,0,1,0,0v17.01384a4.75546,4.75546,0,0,1-4.75546,4.75546h0a4.75546,4.75546,0,0,1-4.75546-4.75546V124.06608A0,0,0,0,1,129.71739,124.06608Z"/><path class="cls-1" d="M138.4856,124.06608h9.51092a0,0,0,0,1,0,0v29.75541a4.75546,4.75546,0,0,1-4.75546,4.75546h0a4.75546,4.75546,0,0,1-4.75546-4.75546V124.06608A0,0,0,0,1,138.4856,124.06608Z"/><path class="cls-1" d="M64.23391,110.5974h9.51092a0,0,0,0,1,0,0v18.95443a4.75546,4.75546,0,0,1-4.75546,4.75546h0a4.75546,4.75546,0,0,1-4.75546-4.75546V110.5974a0,0,0,0,1,0,0Z"/><path class="cls-1" d="M73.71921,110.5974h9.51092a0,0,0,0,1,0,0v12.68477a4.75546,4.75546,0,0,1-4.75546,4.75546h0a4.75546,4.75546,0,0,1-4.75546-4.75546V110.5974A0,0,0,0,1,73.71921,110.5974Z"/></svg>