<svg id="Livello_1" data-name="Livello 1" xmlns="http://www.w3.org/2000/svg" viewBox="0 0 221.03585 181.89321"><defs><style>.cls-1{fill:#00ff9c;stroke:#000;stroke-miterlimit:10;stroke-width:2px;}</style></defs><path class="cls-1" d="M720.81234-516.45016a6.70633,6.70633,0,0,1-1.96879,4.75537,6.68347,6.68347,0,0,1-4.75546,1.98395H556.76479a6.74455,6.74455,0,0,1-6.73942-6.73932,6.76912,6.76912,0,0,1,1.9688-4.77062,6.76946,6.76946,0,0,1,4.77062-1.9688h112.3738a4.75082,4.75082,0,0,0,4.69482,4.08909,4.75086,4.75086,0,0,0,4.69492-4.08909h35.55976A6.73164,6.73164,0,0,1,720.81234-516.45016Z" transform="translate(-529.45741 633.78195)"/><path class="cls-1" d="M669.13859-523.18958h-119.931v2.69571a3.35131,3.35131,0,0,1-3.36217,3.347H545.482a3.348,3.348,0,0,1-3.34692-3.347v-4.17995a6.681,6.681,0,0,1-2.52924-5.25517,6.719,6.719,0,0,1,1.984-4.77063c.16666-.16657.36355-.33314.54528-.48455a6.6021,6.6021,0,0,1,3.877-1.46908,2.45066,2.45066,0,0,1,.33314-.01516h19.11262v4.64944a4.76364,4.76364,0,0,0,4.75546,4.75546,4.75391,4.75391,0,0,0,4.75547-4.75546v-4.64944H669.078v12.81246A3.20689,3.20689,0,0,0,669.13859-523.18958Z" transform="translate(-529.45741 633.78195)"/><path class="cls-1" d="M710.40374-529.924a6.71917,6.71917,0,0,1-1.98395,4.77062,6.70658,6.70658,0,0,1-4.75547,1.9688H678.52414a3.21378,3.21378,0,0,0,.06054-.66637v-12.81246h9.51093v4.37684a4.40155,4.40155,0,0,0,4.40707,4.40707h.69669a4.40155,4.40155,0,0,0,4.40707-4.40707v-4.37684h6.05788A6.74457,6.74457,0,0,1,710.40374-529.924Z" transform="translate(-529.45741 633.78195)"/><path class="cls-1" d="M736.25578-543.4028a6.71882,6.71882,0,0,1-1.984,4.77062,5.96221,5.96221,0,0,1-1.30242.99951v10.16214a4.75391,4.75391,0,0,1-4.75546,4.75546,4.75384,4.75384,0,0,1-4.75546-4.75546v-9.19285h-25.852v-13.8423a4.76358,4.76358,0,0,0,4.75546,4.75547,4.75384,4.75384,0,0,0,4.75546-4.75547v.36356h22.399A6.75431,6.75431,0,0,1,736.25578-543.4028Z" transform="translate(-529.45741 633.78195)"/><path class="cls-1" d="M588.58385-536.66841H574.96877v-9.54115a3.61953,3.61953,0,0,0,3.6196,3.61961h2.27171a3.61952,3.61952,0,0,0,3.61952-3.61961v5.45206A4.09459,4.09459,0,0,0,588.58385-536.66841Z" transform="translate(-529.45741 633.78195)"/><path class="cls-1" d="M669.078-550.14715v13.47874H589.90143a4.09133,4.09133,0,0,0,4.08909-4.08909v-9.38965Z" transform="translate(-529.45741 633.78195)"/><path class="cls-1" d="M688.0998-543.81667v7.14826h-9.51093v-7.14826a3.82636,3.82636,0,0,0,3.83166,3.83156h1.84761A3.82636,3.82636,0,0,0,688.0998-543.81667Z" transform="translate(-529.45741 633.78195)"/><path class="cls-1" d="M565.45784-563.61082v13.46367h-7.16342a6.73171,6.73171,0,0,1-6.73942-6.72426,6.76914,6.76914,0,0,1,1.9688-4.77062,6.76929,6.76929,0,0,1,4.77062-1.96879Z" transform="translate(-529.45741 633.78195)"/><rect class="cls-1" x="64.53311" y="70.17112" width="75.08752" height="13.46367"/><path class="cls-1" d="M722.33778-556.86638A6.73316,6.73316,0,0,1,720.369-552.111a6.769,6.769,0,0,1-4.77062,1.96889h-8.481V-563.6058h8.481A6.73487,6.73487,0,0,1,722.33778-556.86638Z" transform="translate(-529.45741 633.78195)"/><path class="cls-1" d="M574.96877-563.61082V-532.019a4.75391,4.75391,0,0,1-4.75547,4.75546,4.76364,4.76364,0,0,1-4.75546-4.75546v-31.59185Z" transform="translate(-529.45741 633.78195)"/><path class="cls-1" d="M584.4796-563.61082v16.2655a4.75537,4.75537,0,0,1-4.75537,4.75537h0a4.75546,4.75546,0,0,1-4.75545-4.75546v-16.26541Z" transform="translate(-529.45741 633.78195)"/><path class="cls-1" d="M593.99052-563.61082v22.85332a4.09133,4.09133,0,0,1-4.08909,4.08909h-1.31758a4.09459,4.09459,0,0,1-4.10425-4.08909v-22.85332Z" transform="translate(-529.45741 633.78195)"/><path class="cls-1" d="M688.0998-563.61082v18.87026a4.75546,4.75546,0,0,1-4.75546,4.75545h0a4.75546,4.75546,0,0,1-4.75546-4.75545v-18.87026Z" transform="translate(-529.45741 633.78195)"/><path class="cls-1" d="M697.61063-563.61082v31.31925a4.40156,4.40156,0,0,1-4.40707,4.40708h-.69669a4.40156,4.40156,0,0,1-4.40707-4.40708v-31.31925Z" transform="translate(-529.45741 633.78195)"/><path class="cls-1" d="M678.58887-563.61082v39.75487a3.21372,3.21372,0,0,1-.06054.66637,4.75086,4.75086,0,0,1-4.69492,4.08909,4.75082,4.75082,0,0,1-4.69482-4.08909,3.20689,3.20689,0,0,1-.06055-.66637v-39.75487Z" transform="translate(-529.45741 633.78195)"/><path class="cls-1" d="M707.11736-563.6058v13.10012a4.75384,4.75384,0,0,1-4.75546,4.75547,4.76358,4.76358,0,0,1-4.75546-4.75547V-563.6058Z" transform="translate(-529.45741 633.78195)"/><path class="cls-1" d="M707.11736-563.6058v13.10012a4.75384,4.75384,0,0,1-4.75546,4.75547,4.76358,4.76358,0,0,1-4.75546-4.75547V-563.6058Z" transform="translate(-529.45741 633.78195)"/><path class="cls-1" d="M724.37223-570.35015a6.70633,6.70633,0,0,1-1.96879,4.75537,6.68348,6.68348,0,0,1-4.75546,1.984H560.32468a6.74456,6.74456,0,0,1-6.73942-6.73933,6.76914,6.76914,0,0,1,1.9688-4.77062,6.76945,6.76945,0,0,1,4.77062-1.96879h112.3738a4.75083,4.75083,0,0,0,4.69482,4.08909,4.75087,4.75087,0,0,0,4.69492-4.08909H717.648A6.73164,6.73164,0,0,1,724.37223-570.35015Z" transform="translate(-529.45741 633.78195)"/><path class="cls-1" d="M672.69848-577.08956h-119.931v2.69571a3.35131,3.35131,0,0,1-3.36217,3.347h-.36346a3.348,3.348,0,0,1-3.34692-3.347v-4.18a6.681,6.681,0,0,1-2.52924-5.25517,6.719,6.719,0,0,1,1.984-4.77062c.16666-.16657.36355-.33314.54528-.48455a6.60217,6.60217,0,0,1,3.877-1.46909,2.45059,2.45059,0,0,1,.33314-.01516h19.11262v4.64944a4.76363,4.76363,0,0,0,4.75546,4.75546,4.7539,4.7539,0,0,0,4.75547-4.75546v-4.64944h94.10927v12.81247A3.207,3.207,0,0,0,672.69848-577.08956Z" transform="translate(-529.45741 633.78195)"/><path class="cls-1" d="M713.96363-583.82395a6.71917,6.71917,0,0,1-1.98395,4.77062,6.70657,6.70657,0,0,1-4.75547,1.96879H682.084a3.21372,3.21372,0,0,0,.06054-.66637v-12.81246h9.51093v4.37684a4.40156,4.40156,0,0,0,4.40707,4.40708h.69669a4.40156,4.40156,0,0,0,4.40707-4.40708v-4.37684h6.05788A6.74457,6.74457,0,0,1,713.96363-583.82395Z" transform="translate(-529.45741 633.78195)"/><path class="cls-1" d="M739.81567-597.30279a6.71882,6.71882,0,0,1-1.984,4.77063,5.96283,5.96283,0,0,1-1.30242.99951v10.16213a4.7539,4.7539,0,0,1-4.75546,4.75546,4.75383,4.75383,0,0,1-4.75546-4.75546v-9.19285h-25.852v-13.84229a4.76357,4.76357,0,0,0,4.75546,4.75546,4.75383,4.75383,0,0,0,4.75546-4.75546v.36355h22.399A6.75431,6.75431,0,0,1,739.81567-597.30279Z" transform="translate(-529.45741 633.78195)"/><path class="cls-1" d="M592.14374-590.5684H578.52866v-9.54115a3.61953,3.61953,0,0,0,3.6196,3.61961H584.42a3.61951,3.61951,0,0,0,3.61952-3.61961v5.45206A4.09459,4.09459,0,0,0,592.14374-590.5684Z" transform="translate(-529.45741 633.78195)"/><path class="cls-1" d="M672.63793-604.04714v13.47874H593.46132a4.09133,4.09133,0,0,0,4.08909-4.08909v-9.38965Z" transform="translate(-529.45741 633.78195)"/><path class="cls-1" d="M691.65969-597.71666v7.14826h-9.51093v-7.14826a3.82636,3.82636,0,0,0,3.83166,3.83157H687.828A3.82636,3.82636,0,0,0,691.65969-597.71666Z" transform="translate(-529.45741 633.78195)"/><path class="cls-1" d="M569.01773-617.51081v13.46367h-7.16342a6.7317,6.7317,0,0,1-6.73942-6.72425,6.76912,6.76912,0,0,1,1.9688-4.77062,6.7693,6.7693,0,0,1,4.77062-1.9688Z" transform="translate(-529.45741 633.78195)"/><rect class="cls-1" x="68.093" y="16.27114" width="75.08752" height="13.46367"/><path class="cls-1" d="M725.89767-610.76637a6.73316,6.73316,0,0,1-1.96879,4.75537,6.769,6.769,0,0,1-4.77062,1.96889h-8.481v-13.46367h8.481A6.73486,6.73486,0,0,1,725.89767-610.76637Z" transform="translate(-529.45741 633.78195)"/><path class="cls-1" d="M613.14454-623.76558v6.25477H586.48988v-6.25477a3.99116,3.99116,0,0,1,3.99814-3.98307h18.6583A3.99117,3.99117,0,0,1,613.14454-623.76558Z" transform="translate(-529.45741 633.78195)"/><path class="cls-1" d="M106.18393,1h13.75334a5.02465,5.02465,0,0,1,5.02465,5.02465V16.26572a0,0,0,0,1,0,0H101.15928a0,0,0,0,1,0,0V6.02465A5.02465,5.02465,0,0,1,106.18393,1Z"/><path class="cls-1" d="M146.90492,1h21.3869a5.81177,5.81177,0,0,1,5.81177,5.81177V15.7264a0,0,0,0,1,0,0H141.09315a0,0,0,0,1,0,0V6.81177A5.81177,5.81177,0,0,1,146.90492,1Z"/><path class="cls-1" d="M578.52866-617.51081V-585.919a4.7539,4.7539,0,0,1-4.75547,4.75546,4.76363,4.76363,0,0,1-4.75546-4.75546v-31.59185Z" transform="translate(-529.45741 633.78195)"/><path class="cls-1" d="M588.03949-617.51081v16.26551a4.75537,4.75537,0,0,1-4.75537,4.75536h0a4.75546,4.75546,0,0,1-4.75545-4.75546v-16.26541Z" transform="translate(-529.45741 633.78195)"/><path class="cls-1" d="M597.55041-617.51081v22.85332a4.09133,4.09133,0,0,1-4.08909,4.08909h-1.31758a4.09459,4.09459,0,0,1-4.10425-4.08909v-22.85332Z" transform="translate(-529.45741 633.78195)"/><path class="cls-1" d="M691.65969-617.51081v18.87026a4.75546,4.75546,0,0,1-4.75546,4.75546h0a4.75546,4.75546,0,0,1-4.75546-4.75546v-18.87026Z" transform="translate(-529.45741 633.78195)"/><path class="cls-1" d="M701.17052-617.51081v31.31926a4.40155,4.40155,0,0,1-4.40707,4.40707h-.69669a4.40155,4.40155,0,0,1-4.40707-4.40707v-31.31926Z" transform="translate(-529.45741 633.78195)"/><path class="cls-1" d="M682.14876-617.51081v39.75488a3.21378,3.21378,0,0,1-.06054.66637,4.75087,4.75087,0,0,1-4.69492,4.08909,4.75083,4.75083,0,0,1-4.69482-4.08909,3.207,3.207,0,0,1-.06055-.66637v-39.75488Z" transform="translate(-529.45741 633.78195)"/><path class="cls-1" d="M710.67725-617.50578v13.10012a4.75383,4.75383,0,0,1-4.75546,4.75546,4.76357,4.76357,0,0,1-4.75546-4.75546v-13.10012Z" transform="translate(-529.45741 633.78195)"/><path class="cls-1" d="M710.67725-617.50578v13.10012a4.75383,4.75383,0,0,1-4.75546,4.75546,4.76357,4.76357,0,0,1-4.75546-4.75546v-13.10012Z" transform="translate(-529.45741 633.78195)"/><path class="cls-1" d="M1,162.05552H220.03585a0,0,0,0,1,0,0v0a18.83767,18.83767,0,0,1-18.83767,18.83767H19.83767A18.83767,18.83767,0,0,1,1,162.05554v0a0,0,0,0,1,0,0Z"/><line class="cls-1" x1="3.83829" y1="171.47436" x2="217.19135" y2="171.47436"/><rect class="cls-1" x="29.60671" y="149.39237" width="161.81621" height="12.66314" rx="6.33157"/><path class="cls-1" d="M702.47933-490.71926a6.31048,6.31048,0,0,1-1.86,4.48,6.30235,6.30235,0,0,1-4.47,1.85h-139.08v2.6a4.75431,4.75431,0,0,1-4.75,4.75,4.75644,4.75644,0,0,1-4.76-4.75v-2.6h-.57a6.33127,6.33127,0,0,1-6.33-6.33,6.31048,6.31048,0,0,1,1.86-4.48,6.3024,6.3024,0,0,1,4.47-1.85h149.16A6.33127,6.33127,0,0,1,702.47933-490.71926Z" transform="translate(-529.45741 633.78195)"/><path class="cls-1" d="M734.18935-503.38924a6.32586,6.32586,0,0,1-1.85,4.48,6.31345,6.31345,0,0,1-3.21,1.73v7.16a4.75644,4.75644,0,0,1-4.76,4.75,4.75431,4.75431,0,0,1-4.75-4.75v-7.03h-140.91a6.34184,6.34184,0,0,1-6.34-6.34,6.28689,6.28689,0,0,1,1.86-4.47,6.31058,6.31058,0,0,1,4.48-1.86h149.15a5.94828,5.94828,0,0,1,1.27.13A6.321,6.321,0,0,1,734.18935-503.38924Z" transform="translate(-529.45741 633.78195)"/><path class="cls-1" d="M129.71739,124.06608h9.51092a0,0,0,0,1,0,0v17.01384a4.75546,4.75546,0,0,1-4.75546,4.75546h0a4.75546,4.75546,0,0,1-4.75546-4.75546V124.06608A0,0,0,0,1,129.71739,124.06608Z"/><path class="cls-1" d="M138.4856,124.06608h9.51092a0,0,0,0,1,0,0v29.75541a4.75546,4.75546,0,0,1-4.75546,4.75546h0a4.75546,4.75546,0,0,1-4.75546-4.75546V124.06608a0,0,0,0,1,0,0Z"/><path class="cls-1" d="M64.23391,110.5974h9.51092a0,0,0,0,1,0,0v18.95443a4.75546,4.75546,0,0,1-4.75546,4.75546h0a4.75546,4.75546,0,0,1-4.75546-4.75546V110.5974A0,0,0,0,1,64.23391,110.5974Z"/><path class="cls-1" d="M73.71921,110.5974h9.51092a0,0,0,0,1,0,0v12.68477a4.75546,4.75546,0,0,1-4.75546,4.75546h0a4.75546,4.75546,0,0,1-4.75546-4.75546V110.5974A0,0,0,0,1,73.71921,110.5974Z"/></svg>