<svg id="Livello_1" data-name="Livello 1" xmlns="http://www.w3.org/2000/svg" viewBox="0 0 221.03585 181.89321"><defs><style>.cls-1{fill:#00ff9c;stroke:#000;stroke-miterlimit:10;stroke-width:2px;}</style></defs><path class="cls-1" d="M384.273,296.32273a6.74782,6.74782,0,0,1-6.72426,6.73932H220.22546a6.73938,6.73938,0,1,1,0-13.47874h112.3738a4.73974,4.73974,0,0,0,9.38974,0h35.55976A6.73165,6.73165,0,0,1,384.273,296.32273Z" transform="translate(-192.91809 -178.99094)"/><path class="cls-1" d="M332.59926,289.58331h-119.931V292.279a3.35132,3.35132,0,0,1-3.36218,3.347h-.36346a3.348,3.348,0,0,1-3.34692-3.347v-4.18a6.72581,6.72581,0,0,1-.54528-10.0258c.16666-.16657.36355-.33314.54528-.48455a6.60215,6.60215,0,0,1,3.877-1.46908,2.45073,2.45073,0,0,1,.33314-.01516h19.11263v4.64944a4.75546,4.75546,0,0,0,9.51092,0v-4.64944h94.10927v12.81246A3.20689,3.20689,0,0,0,332.59926,289.58331Z" transform="translate(-192.91809 -178.99094)"/><path class="cls-1" d="M373.86441,282.84892a6.74776,6.74776,0,0,1-6.73941,6.73942H341.98481a3.2131,3.2131,0,0,0,.06055-.66637V276.10951h9.51092v4.37684a4.40155,4.40155,0,0,0,4.40707,4.40707H356.66a4.40155,4.40155,0,0,0,4.40707-4.40707v-4.37684H367.125A6.74457,6.74457,0,0,1,373.86441,282.84892Z" transform="translate(-192.91809 -178.99094)"/><path class="cls-1" d="M399.71645,269.37009a6.71881,6.71881,0,0,1-1.98395,4.77062,5.96269,5.96269,0,0,1-1.30242.99951v10.16214a4.75547,4.75547,0,0,1-9.51093,0v-9.19285h-25.852v-13.8423a4.75547,4.75547,0,1,0,9.51093,0v.36356h22.399A6.7543,6.7543,0,0,1,399.71645,269.37009Z" transform="translate(-192.91809 -178.99094)"/><path class="cls-1" d="M252.04452,276.10448H238.42944v-9.54115a3.61954,3.61954,0,0,0,3.61961,3.61961h2.27171a3.61951,3.61951,0,0,0,3.61951-3.61961v5.45206A4.09459,4.09459,0,0,0,252.04452,276.10448Z" transform="translate(-192.91809 -178.99094)"/><path class="cls-1" d="M332.53871,262.62574v13.47874h-79.1766a4.09134,4.09134,0,0,0,4.08909-4.08909v-9.38965Z" transform="translate(-192.91809 -178.99094)"/><path class="cls-1" d="M351.56047,268.95622v7.14826h-9.51092v-7.14826a3.82636,3.82636,0,0,0,3.83165,3.83156h1.84761A3.82636,3.82636,0,0,0,351.56047,268.95622Z" transform="translate(-192.91809 -178.99094)"/><path class="cls-1" d="M228.91852,249.16207v13.46367h-7.16343a6.73185,6.73185,0,1,1,0-13.46367Z" transform="translate(-192.91809 -178.99094)"/><rect class="cls-1" x="64.53311" y="70.17112" width="75.08752" height="13.46367"/><path class="cls-1" d="M385.79846,255.90651a6.7221,6.7221,0,0,1-6.73942,6.72426h-8.481V249.16709h8.481A6.73488,6.73488,0,0,1,385.79846,255.90651Z" transform="translate(-192.91809 -178.99094)"/><path class="cls-1" d="M238.42944,249.16207v31.59185a4.75546,4.75546,0,0,1-9.51092,0V249.16207Z" transform="translate(-192.91809 -178.99094)"/><path class="cls-1" d="M247.94027,249.16207v16.2655a4.75537,4.75537,0,0,1-4.75536,4.75537h0a4.75546,4.75546,0,0,1-4.75546-4.75546V249.16207Z" transform="translate(-192.91809 -178.99094)"/><path class="cls-1" d="M257.4512,249.16207v22.85332a4.09134,4.09134,0,0,1-4.08909,4.08909h-1.31759a4.09459,4.09459,0,0,1-4.10425-4.08909V249.16207Z" transform="translate(-192.91809 -178.99094)"/><path class="cls-1" d="M351.56047,249.16207v18.87026a4.75546,4.75546,0,0,1-4.75546,4.75545h0a4.75545,4.75545,0,0,1-4.75545-4.75545V249.16207Z" transform="translate(-192.91809 -178.99094)"/><path class="cls-1" d="M361.0713,249.16207v31.31925a4.40156,4.40156,0,0,1-4.40707,4.40708h-.69669a4.40156,4.40156,0,0,1-4.40707-4.40708V249.16207Z" transform="translate(-192.91809 -178.99094)"/><path class="cls-1" d="M342.04955,249.16207v39.75487a3.213,3.213,0,0,1-.06055.66637,4.73974,4.73974,0,0,1-9.38974,0,3.20689,3.20689,0,0,1-.06055-.66637V249.16207Z" transform="translate(-192.91809 -178.99094)"/><path class="cls-1" d="M370.578,249.16709v13.10012a4.75547,4.75547,0,1,1-9.51093,0V249.16709Z" transform="translate(-192.91809 -178.99094)"/><path class="cls-1" d="M370.578,249.16709v13.10012a4.75547,4.75547,0,1,1-9.51093,0V249.16709Z" transform="translate(-192.91809 -178.99094)"/><path class="cls-1" d="M387.83291,242.42274a6.74784,6.74784,0,0,1-6.72426,6.73933H223.78535a6.73938,6.73938,0,1,1,0-13.47874h112.3738a4.73974,4.73974,0,0,0,9.38974,0h35.55976A6.73164,6.73164,0,0,1,387.83291,242.42274Z" transform="translate(-192.91809 -178.99094)"/><path class="cls-1" d="M336.15915,235.68333h-119.931V238.379a3.35132,3.35132,0,0,1-3.36218,3.347h-.36346a3.348,3.348,0,0,1-3.34692-3.347v-4.18a6.7258,6.7258,0,0,1-.54528-10.02579c.16666-.16657.36355-.33314.54528-.48455a6.60222,6.60222,0,0,1,3.877-1.46909,2.45073,2.45073,0,0,1,.33314-.01516H232.4784v4.64944a4.75547,4.75547,0,0,0,9.51093,0v-4.64944H336.0986V235.017A3.207,3.207,0,0,0,336.15915,235.68333Z" transform="translate(-192.91809 -178.99094)"/><path class="cls-1" d="M377.4243,228.94894a6.74775,6.74775,0,0,1-6.73941,6.73941H345.5447a3.213,3.213,0,0,0,.06055-.66637V222.20952h9.51092v4.37684a4.40156,4.40156,0,0,0,4.40707,4.40708h.69669a4.40156,4.40156,0,0,0,4.40707-4.40708v-4.37684h6.05789A6.74457,6.74457,0,0,1,377.4243,228.94894Z" transform="translate(-192.91809 -178.99094)"/><path class="cls-1" d="M403.27634,215.4701a6.71881,6.71881,0,0,1-1.98395,4.77063,5.96313,5.96313,0,0,1-1.30243.99951v10.16213a4.75546,4.75546,0,1,1-9.51092,0v-9.19285H364.627V208.36723a4.75547,4.75547,0,0,0,9.51093,0v.36355h22.399A6.7543,6.7543,0,0,1,403.27634,215.4701Z" transform="translate(-192.91809 -178.99094)"/><path class="cls-1" d="M255.60441,222.20449H241.98933v-9.54115a3.61953,3.61953,0,0,0,3.61961,3.61961h2.27171a3.61951,3.61951,0,0,0,3.61951-3.61961v5.45206A4.09459,4.09459,0,0,0,255.60441,222.20449Z" transform="translate(-192.91809 -178.99094)"/><path class="cls-1" d="M336.0986,208.72575v13.47874H256.922a4.09134,4.09134,0,0,0,4.08909-4.08909v-9.38965Z" transform="translate(-192.91809 -178.99094)"/><path class="cls-1" d="M355.12036,215.05623v7.14826h-9.51092v-7.14826a3.82636,3.82636,0,0,0,3.83165,3.83157h1.84761A3.82636,3.82636,0,0,0,355.12036,215.05623Z" transform="translate(-192.91809 -178.99094)"/><path class="cls-1" d="M232.4784,195.26208v13.46367H225.315a6.73185,6.73185,0,1,1,0-13.46367Z" transform="translate(-192.91809 -178.99094)"/><rect class="cls-1" x="68.093" y="16.27114" width="75.08752" height="13.46367"/><path class="cls-1" d="M389.35835,202.00652a6.7221,6.7221,0,0,1-6.73942,6.72426h-8.481V195.26711h8.481A6.73487,6.73487,0,0,1,389.35835,202.00652Z" transform="translate(-192.91809 -178.99094)"/><path class="cls-1" d="M285.03058,189.00731v6.25477H258.37592v-6.25477a3.99116,3.99116,0,0,1,3.99814-3.98307h18.65829A3.99117,3.99117,0,0,1,285.03058,189.00731Z" transform="translate(-192.91809 -178.99094)"/><path class="cls-1" d="M106.18393,1h13.75334a5.02465,5.02465,0,0,1,5.02465,5.02465V16.26572a0,0,0,0,1,0,0H101.15928a0,0,0,0,1,0,0V6.02465A5.02465,5.02465,0,0,1,106.18393,1Z"/><path class="cls-1" d="M241.98933,195.26208v31.59185a4.75547,4.75547,0,0,1-9.51093,0V195.26208Z" transform="translate(-192.91809 -178.99094)"/><path class="cls-1" d="M251.50016,195.26208v16.26551a4.75536,4.75536,0,0,1-4.75536,4.75536h0a4.75546,4.75546,0,0,1-4.75546-4.75546V195.26208Z" transform="translate(-192.91809 -178.99094)"/><path class="cls-1" d="M261.01109,195.26208V218.1154a4.09134,4.09134,0,0,1-4.08909,4.08909h-1.31759a4.09459,4.09459,0,0,1-4.10425-4.08909V195.26208Z" transform="translate(-192.91809 -178.99094)"/><path class="cls-1" d="M355.12036,195.26208v18.87026a4.75546,4.75546,0,0,1-4.75546,4.75546h0a4.75546,4.75546,0,0,1-4.75545-4.75546V195.26208Z" transform="translate(-192.91809 -178.99094)"/><path class="cls-1" d="M364.63119,195.26208v31.31926a4.40155,4.40155,0,0,1-4.40707,4.40707h-.69669a4.40155,4.40155,0,0,1-4.40707-4.40707V195.26208Z" transform="translate(-192.91809 -178.99094)"/><path class="cls-1" d="M345.60944,195.26208V235.017a3.2131,3.2131,0,0,1-.06055.66637,4.73974,4.73974,0,0,1-9.38974,0,3.207,3.207,0,0,1-.06055-.66637V195.26208Z" transform="translate(-192.91809 -178.99094)"/><path class="cls-1" d="M374.13793,195.26711v13.10012a4.75547,4.75547,0,0,1-9.51093,0V195.26711Z" transform="translate(-192.91809 -178.99094)"/><path class="cls-1" d="M374.13793,195.26711v13.10012a4.75547,4.75547,0,0,1-9.51093,0V195.26711Z" transform="translate(-192.91809 -178.99094)"/><path class="cls-1" d="M1,162.05552H220.03585a0,0,0,0,1,0,0v0a18.83767,18.83767,0,0,1-18.83767,18.83767H19.83767A18.83767,18.83767,0,0,1,1,162.05554v0A0,0,0,0,1,1,162.05552Z"/><line class="cls-1" x1="3.83829" y1="171.47436" x2="217.19135" y2="171.47436"/><rect class="cls-1" x="29.60671" y="149.39237" width="161.81621" height="12.66314" rx="6.33157"/><path class="cls-1" d="M365.94,322.05363a6.33339,6.33339,0,0,1-6.33,6.33H220.53v2.6a4.755,4.755,0,0,1-9.51,0v-2.6h-.57a6.33,6.33,0,0,1,0-12.66H359.61A6.33126,6.33126,0,0,1,365.94,322.05363Z" transform="translate(-192.91809 -178.99094)"/><path class="cls-1" d="M397.65,309.38365a6.33172,6.33172,0,0,1-5.06,6.21v7.16a4.755,4.755,0,0,1-9.51,0v-7.03H242.17a6.335,6.335,0,0,1,0-12.67H391.32a5.94841,5.94841,0,0,1,1.27.13A6.321,6.321,0,0,1,397.65,309.38365Z" transform="translate(-192.91809 -178.99094)"/><path class="cls-1" d="M129.71739,124.06608h9.51092a0,0,0,0,1,0,0v17.01384a4.75546,4.75546,0,0,1-4.75546,4.75546h0a4.75546,4.75546,0,0,1-4.75546-4.75546V124.06608A0,0,0,0,1,129.71739,124.06608Z"/><path class="cls-1" d="M138.4856,124.06608h9.51092a0,0,0,0,1,0,0v29.75541a4.75546,4.75546,0,0,1-4.75546,4.75546h0a4.75546,4.75546,0,0,1-4.75546-4.75546V124.06608A0,0,0,0,1,138.4856,124.06608Z"/><path class="cls-1" d="M64.23391,110.5974h9.51092a0,0,0,0,1,0,0v18.95443a4.75546,4.75546,0,0,1-4.75546,4.75546h0a4.75546,4.75546,0,0,1-4.75546-4.75546V110.5974A0,0,0,0,1,64.23391,110.5974Z"/><path class="cls-1" d="M73.71921,110.5974h9.51092a0,0,0,0,1,0,0v12.68477a4.75546,4.75546,0,0,1-4.75546,4.75546h0a4.75546,4.75546,0,0,1-4.75546-4.75546V110.5974A0,0,0,0,1,73.71921,110.5974Z"/></svg>