<svg id="Livello_1" data-name="Livello 1" xmlns="http://www.w3.org/2000/svg" viewBox="0 0 221.03585 180.3616"><defs><style>.cls-1{fill:#00ff9c;stroke:#000;stroke-miterlimit:10;stroke-width:2px;}</style></defs><path class="cls-1" d="M359.04415-448.81982a6.70632,6.70632,0,0,1-1.9688,4.75537,6.68346,6.68346,0,0,1-4.75546,1.984H194.9966a6.74456,6.74456,0,0,1-6.73942-6.73933,6.76913,6.76913,0,0,1,1.96879-4.77062,6.76947,6.76947,0,0,1,4.77063-1.96879H307.37039a4.75084,4.75084,0,0,0,4.69483,4.08909,4.75085,4.75085,0,0,0,4.69491-4.08909h35.55976A6.73164,6.73164,0,0,1,359.04415-448.81982Z" transform="translate(-167.68922 564.62)"/><path class="cls-1" d="M307.37039-455.55923H187.4394v2.69571a3.35131,3.35131,0,0,1-3.36218,3.347h-.36346a3.348,3.348,0,0,1-3.34692-3.347v-4.18a6.68094,6.68094,0,0,1-2.52923-5.25517,6.719,6.719,0,0,1,1.98395-4.77062c.16666-.16657.36355-.33314.54528-.48455a6.60223,6.60223,0,0,1,3.877-1.46909,2.45212,2.45212,0,0,1,.33313-.01515h19.11263v4.64943a4.76363,4.76363,0,0,0,4.75546,4.75547,4.75391,4.75391,0,0,0,4.75546-4.75547v-4.64943h94.10928v12.81246A3.207,3.207,0,0,0,307.37039-455.55923Z" transform="translate(-167.68922 564.62)"/><path class="cls-1" d="M348.63555-462.29362a6.71913,6.71913,0,0,1-1.984,4.77062,6.70654,6.70654,0,0,1-4.75546,1.96879H316.75594a3.213,3.213,0,0,0,.06055-.66637V-469.033h9.51092v4.37685a4.40156,4.40156,0,0,0,4.40707,4.40707h.69669a4.40155,4.40155,0,0,0,4.40707-4.40707V-469.033h6.05789A6.74458,6.74458,0,0,1,348.63555-462.29362Z" transform="translate(-167.68922 564.62)"/><path class="cls-1" d="M374.48758-475.77246a6.71881,6.71881,0,0,1-1.98395,4.77063,5.96307,5.96307,0,0,1-1.30242.99951v10.16213a4.75391,4.75391,0,0,1-4.75547,4.75547,4.75385,4.75385,0,0,1-4.75546-4.75547V-469.033h-25.852v-13.84229a4.76357,4.76357,0,0,0,4.75547,4.75546,4.75384,4.75384,0,0,0,4.75546-4.75546v.36355h22.399A6.7543,6.7543,0,0,1,374.48758-475.77246Z" transform="translate(-167.68922 564.62)"/><path class="cls-1" d="M226.81565-469.03806H213.20057v-9.54116a3.61953,3.61953,0,0,0,3.61961,3.61961h2.27171a3.61951,3.61951,0,0,0,3.61951-3.61961v5.45206A4.0946,4.0946,0,0,0,226.81565-469.03806Z" transform="translate(-167.68922 564.62)"/><path class="cls-1" d="M307.30985-482.5168v13.47874H228.13324a4.09134,4.09134,0,0,0,4.08909-4.0891v-9.38964Z" transform="translate(-167.68922 564.62)"/><path class="cls-1" d="M326.3316-476.18633v7.14827h-9.51092v-7.14827a3.82636,3.82636,0,0,0,3.83165,3.83157H322.5A3.82636,3.82636,0,0,0,326.3316-476.18633Z" transform="translate(-167.68922 564.62)"/><path class="cls-1" d="M203.68965-495.98048v13.46368h-7.16342a6.7317,6.7317,0,0,1-6.73942-6.72426,6.76915,6.76915,0,0,1,1.96879-4.77062,6.76932,6.76932,0,0,1,4.77063-1.9688Z" transform="translate(-167.68922 564.62)"/><rect class="cls-1" x="64.53311" y="68.63952" width="75.08752" height="13.46367"/><path class="cls-1" d="M360.56959-489.236a6.73313,6.73313,0,0,1-1.9688,4.75537,6.76894,6.76894,0,0,1-4.77062,1.96889h-8.481v-13.46367h8.481A6.73487,6.73487,0,0,1,360.56959-489.236Z" transform="translate(-167.68922 564.62)"/><path class="cls-1" d="M213.20057-495.98048v31.59185a4.75391,4.75391,0,0,1-4.75546,4.75547,4.76363,4.76363,0,0,1-4.75546-4.75547v-31.59185Z" transform="translate(-167.68922 564.62)"/><path class="cls-1" d="M222.7114-495.98048V-479.715a4.75536,4.75536,0,0,1-4.75536,4.75536h0a4.75546,4.75546,0,0,1-4.75546-4.75545v-16.26542Z" transform="translate(-167.68922 564.62)"/><path class="cls-1" d="M232.22233-495.98048v22.85332a4.09134,4.09134,0,0,1-4.08909,4.0891h-1.31759a4.0946,4.0946,0,0,1-4.10425-4.0891v-22.85332Z" transform="translate(-167.68922 564.62)"/><path class="cls-1" d="M326.3316-495.98048v18.87026a4.75546,4.75546,0,0,1-4.75545,4.75546h0a4.75546,4.75546,0,0,1-4.75546-4.75546v-18.87026Z" transform="translate(-167.68922 564.62)"/><path class="cls-1" d="M335.84243-495.98048v31.31926a4.40155,4.40155,0,0,1-4.40707,4.40707h-.69669a4.40155,4.40155,0,0,1-4.40707-4.40707v-31.31926Z" transform="translate(-167.68922 564.62)"/><path class="cls-1" d="M316.82068-495.98048v39.75488a3.2131,3.2131,0,0,1-.06055.66637,4.75085,4.75085,0,0,1-4.69491,4.08909,4.75084,4.75084,0,0,1-4.69483-4.08909,3.207,3.207,0,0,1-.06054-.66637v-39.75488Z" transform="translate(-167.68922 564.62)"/><path class="cls-1" d="M345.34917-495.97545v13.10012a4.75384,4.75384,0,0,1-4.75546,4.75546,4.76357,4.76357,0,0,1-4.75547-4.75546v-13.10012Z" transform="translate(-167.68922 564.62)"/><path class="cls-1" d="M345.34917-495.97545v13.10012a4.75384,4.75384,0,0,1-4.75546,4.75546,4.76357,4.76357,0,0,1-4.75547-4.75546v-13.10012Z" transform="translate(-167.68922 564.62)"/><path class="cls-1" d="M362.604-502.7198a6.70634,6.70634,0,0,1-1.9688,4.75537,6.68347,6.68347,0,0,1-4.75546,1.98395H198.55648a6.74455,6.74455,0,0,1-6.73941-6.73932,6.76911,6.76911,0,0,1,1.96879-4.77062,6.76946,6.76946,0,0,1,4.77062-1.9688h112.3738a4.75083,4.75083,0,0,0,4.69483,4.08909,4.75085,4.75085,0,0,0,4.69491-4.08909h35.55976A6.73165,6.73165,0,0,1,362.604-502.7198Z" transform="translate(-167.68922 564.62)"/><path class="cls-1" d="M310.93028-509.45922h-119.931v2.69571a3.35131,3.35131,0,0,1-3.36218,3.347h-.36346a3.348,3.348,0,0,1-3.34692-3.347v-4.18a6.681,6.681,0,0,1-2.52923-5.25517,6.719,6.719,0,0,1,1.98395-4.77063c.16666-.16657.36355-.33314.54528-.48455a6.60228,6.60228,0,0,1,3.877-1.46908,2.45073,2.45073,0,0,1,.33314-.01516h19.11263v4.64944a4.76363,4.76363,0,0,0,4.75546,4.75546,4.75391,4.75391,0,0,0,4.75546-4.75546V-522.938h94.10928v12.81246A3.2069,3.2069,0,0,0,310.93028-509.45922Z" transform="translate(-167.68922 564.62)"/><path class="cls-1" d="M352.19544-516.19361a6.71913,6.71913,0,0,1-1.984,4.77062,6.70655,6.70655,0,0,1-4.75546,1.9688H320.31583a3.2131,3.2131,0,0,0,.06055-.66637V-522.933h9.51092v4.37684a4.40155,4.40155,0,0,0,4.40707,4.40707h.69669a4.40155,4.40155,0,0,0,4.40707-4.40707V-522.933H345.456A6.74457,6.74457,0,0,1,352.19544-516.19361Z" transform="translate(-167.68922 564.62)"/><path class="cls-1" d="M378.04747-529.67244a6.71881,6.71881,0,0,1-1.98395,4.77062,5.96245,5.96245,0,0,1-1.30242.99951v10.16214a4.75391,4.75391,0,0,1-4.75547,4.75546,4.75385,4.75385,0,0,1-4.75546-4.75546V-522.933h-25.852v-13.84229a4.76358,4.76358,0,0,0,4.75547,4.75546,4.75385,4.75385,0,0,0,4.75546-4.75546v.36355h22.399A6.7543,6.7543,0,0,1,378.04747-529.67244Z" transform="translate(-167.68922 564.62)"/><path class="cls-1" d="M230.37554-522.938H216.76046v-9.54115a3.61954,3.61954,0,0,0,3.61961,3.61961h2.27171a3.61951,3.61951,0,0,0,3.61951-3.61961v5.45206A4.09459,4.09459,0,0,0,230.37554-522.938Z" transform="translate(-167.68922 564.62)"/><path class="cls-1" d="M310.86974-536.41679V-522.938H231.69313a4.09134,4.09134,0,0,0,4.08909-4.08909v-9.38965Z" transform="translate(-167.68922 564.62)"/><path class="cls-1" d="M329.89149-530.08631v7.14826h-9.51092v-7.14826a3.82636,3.82636,0,0,0,3.83165,3.83156h1.84762A3.82636,3.82636,0,0,0,329.89149-530.08631Z" transform="translate(-167.68922 564.62)"/><path class="cls-1" d="M207.24954-549.88046v13.46367h-7.16342a6.7317,6.7317,0,0,1-6.73942-6.72426,6.76917,6.76917,0,0,1,1.96879-4.77062,6.76931,6.76931,0,0,1,4.77063-1.96879Z" transform="translate(-167.68922 564.62)"/><rect class="cls-1" x="68.093" y="14.73953" width="75.08752" height="13.46367"/><path class="cls-1" d="M364.12948-543.136a6.73316,6.73316,0,0,1-1.9688,4.75537,6.769,6.769,0,0,1-4.77062,1.96889h-8.481v-13.46368h8.481A6.73488,6.73488,0,0,1,364.12948-543.136Z" transform="translate(-167.68922 564.62)"/><path class="cls-1" d="M216.76046-549.88046v31.59185a4.75391,4.75391,0,0,1-4.75546,4.75546,4.76363,4.76363,0,0,1-4.75546-4.75546v-31.59185Z" transform="translate(-167.68922 564.62)"/><path class="cls-1" d="M235.78222-549.88046v22.85332a4.09134,4.09134,0,0,1-4.08909,4.08909h-1.31759a4.09459,4.09459,0,0,1-4.10425-4.08909v-22.85332Z" transform="translate(-167.68922 564.62)"/><path class="cls-1" d="M320.38057-549.88046v39.75487a3.213,3.213,0,0,1-.06055.66637,4.75085,4.75085,0,0,1-4.69491,4.08909,4.75083,4.75083,0,0,1-4.69483-4.08909,3.2069,3.2069,0,0,1-.06054-.66637v-39.75487Z" transform="translate(-167.68922 564.62)"/><path class="cls-1" d="M348.90906-549.87544v13.10013a4.75385,4.75385,0,0,1-4.75546,4.75546,4.76358,4.76358,0,0,1-4.75547-4.75546v-13.10013Z" transform="translate(-167.68922 564.62)"/><path class="cls-1" d="M348.90906-549.87544v13.10013a4.75385,4.75385,0,0,1-4.75546,4.75546,4.76358,4.76358,0,0,1-4.75547-4.75546v-13.10013Z" transform="translate(-167.68922 564.62)"/><path class="cls-1" d="M1,160.52391H220.03585a0,0,0,0,1,0,0v0a18.83767,18.83767,0,0,1-18.83767,18.83767H19.83767A18.83767,18.83767,0,0,1,1,160.52393v0a0,0,0,0,1,0,0Z"/><line class="cls-1" x1="3.83829" y1="169.94276" x2="217.19135" y2="169.94276"/><rect class="cls-1" x="29.60671" y="147.86077" width="161.81621" height="12.66314" rx="6.33157"/><path class="cls-1" d="M340.71113-423.08891a6.31053,6.31053,0,0,1-1.86,4.48,6.3024,6.3024,0,0,1-4.47,1.85h-139.08v2.6a4.75431,4.75431,0,0,1-4.75,4.75,4.75645,4.75645,0,0,1-4.76-4.75v-2.6h-.57a6.33125,6.33125,0,0,1-6.33-6.33,6.31051,6.31051,0,0,1,1.86-4.48,6.30237,6.30237,0,0,1,4.47-1.85h149.16A6.33126,6.33126,0,0,1,340.71113-423.08891Z" transform="translate(-167.68922 564.62)"/><path class="cls-1" d="M372.42116-435.7589a6.32589,6.32589,0,0,1-1.85,4.48,6.31342,6.31342,0,0,1-3.21,1.73v7.16a4.75645,4.75645,0,0,1-4.76,4.75,4.75431,4.75431,0,0,1-4.75-4.75v-7.03h-140.91a6.34184,6.34184,0,0,1-6.34-6.34,6.28694,6.28694,0,0,1,1.86-4.47,6.31063,6.31063,0,0,1,4.48-1.86h149.15a5.94841,5.94841,0,0,1,1.27.13A6.321,6.321,0,0,1,372.42116-435.7589Z" transform="translate(-167.68922 564.62)"/><path class="cls-1" d="M129.71739,122.53448h9.51092a0,0,0,0,1,0,0v17.01384a4.75546,4.75546,0,0,1-4.75546,4.75546h0a4.75546,4.75546,0,0,1-4.75546-4.75546V122.53448A0,0,0,0,1,129.71739,122.53448Z"/><path class="cls-1" d="M138.4856,122.53448h9.51092a0,0,0,0,1,0,0v29.75541a4.75546,4.75546,0,0,1-4.75546,4.75546h0a4.75546,4.75546,0,0,1-4.75546-4.75546V122.53448A0,0,0,0,1,138.4856,122.53448Z"/><path class="cls-1" d="M64.23391,109.06579h9.51092a0,0,0,0,1,0,0v18.95443a4.75546,4.75546,0,0,1-4.75546,4.75546h0a4.75546,4.75546,0,0,1-4.75546-4.75546V109.06579a0,0,0,0,1,0,0Z"/><path class="cls-1" d="M73.71921,109.06579h9.51092a0,0,0,0,1,0,0v12.68477a4.75546,4.75546,0,0,1-4.75546,4.75546h0a4.75546,4.75546,0,0,1-4.75546-4.75546V109.06579a0,0,0,0,1,0,0Z"/><path class="cls-1" d="M374.48-556.88a6.74494,6.74494,0,0,1-1.97,4.76,6.7116,6.7116,0,0,1-4.76,1.98H210.43a6.74305,6.74305,0,0,1-6.74-6.74,6.78658,6.78658,0,0,1,1.97-4.77,6.78657,6.78657,0,0,1,4.77-1.97H367.75A6.74094,6.74094,0,0,1,374.48-556.88Z" transform="translate(-167.68922 564.62)"/><path class="cls-1" d="M265.19-563.62v10.18824a4.76,4.76,0,0,1-4.76,4.76h0a4.76,4.76,0,0,1-4.76-4.76V-563.62Z" transform="translate(-167.68922 564.62)"/><path class="cls-1" d="M255.30023-563.30436v28.12552a4.755,4.755,0,0,1-4.755,4.755h0a4.755,4.755,0,0,1-4.755-4.755v-28.12552Z" transform="translate(-167.68922 564.62)"/><path class="cls-1" d="M293.84-563.30436v43.1561a4.755,4.755,0,0,1-4.755,4.755h0a4.755,4.755,0,0,1-4.755-4.755v-43.1561Z" transform="translate(-167.68922 564.62)"/><path class="cls-1" d="M339.40232-563.30436v44.39481a4.75541,4.75541,0,0,1-4.75541,4.75542h0a4.75541,4.75541,0,0,1-4.75541-4.75542v-44.39481Z" transform="translate(-167.68922 564.62)"/><path class="cls-1" d="M329.89149-563.30436v32.29416a4.75546,4.75546,0,0,1-4.75546,4.75545h0a4.75546,4.75546,0,0,1-4.75546-4.75545v-32.29416Z" transform="translate(-167.68922 564.62)"/><path class="cls-1" d="M226.27129-563.62v30.005a4.75541,4.75541,0,0,1-4.75541,4.75541h0a4.75541,4.75541,0,0,1-4.75541-4.75541V-563.62Z" transform="translate(-167.68922 564.62)"/></svg>